<svg xmlns="http://www.w3.org/2000/svg" width="3438" height="3438" viewBox="0 0 3438 3438">
  <defs>
    <style>
      .cls-1 {
        fill: #f3f1f2;
        fill-rule: evenodd;
      }
    </style>
  </defs>
  <path id="Color_Fill_1" data-name="Color Fill 1" class="cls-1" d="M1773,153c15.71-.436,61.16-0.818,67,7,24.45-8.428,59.6-2.006,89-2l207,8v4q-4.005,2-8,4c0.67,1.667,1.33,3.333,2,5,0.67-1.333,1.33-2.667,2-4,24.01-12.248,63.32-3.955,99-2,25.73,1.41,105.87,5.48,125,18,2.17,1.423,11.85-1.943,17-1l64,13,32,5,149,40c41.53,15.733,86.82,28.878,126,47q19.995,7.5,40,15,54.99,28,110,56c87.87,55.737,173.66,113.87,235,196,32.76,43.858,69.03,88.261,93,141q12.495,32.5,25,65c4.64,11.523,26.29,67.541,19,77,11.14,3.064,10.25,31.144,13,43,8.9,38.328,19.39,96.366,4,131-19.09,42.97-55.9,23.41-108,32l-247,9c-33.74,6.14-74.33-3.83-102,6v1l299-9c38.8-6.04,109.5,8.81,135-7,16.23-10.06,31.65-27.08,37-48,7.94-31.033-11.02-132.876-19-159,2.26-2.991,2.71-3.726,7-5q7.5,38,15,76c2.73,14.57-1.95,39.659,6,50h4c0.61,47.68-22.53,88.54-57,98l-125,3q-75.495,1.995-151,4-50.49,1.005-101,2c-14.1,4.49-76.27,5.18-90,0H2603l-608-3q-115.995-1.005-232-2l-372-3H1251q-59.49-.495-119-1c-25.7,0-55.44,1.92-78-2q-53-1.995-106-4l-95-3q-306.969-4.005-614-8c-7.387-4.05-12.876-12.31-9-22,19.554-7.71,43.528-12.06,69-17q17.5-1,35-2c-29.435.33-121.863,6.53-142-2-8.683-3.679-11.189-13.471-18-18-2.491-1.657-8.675.379-12-3-10.594-10.768-18.742-56.244-13-84,11.725-56.677,16.164-106.632,38-152,62.5-129.859,153.146-225.041,265-308,26.358-19.549,54.305-41.341,86-55v6l4-1v-3c-3.728-1.964-1.635.428-3-4l103-53c46.491-27.241,100.671-34.548,152-60l43-12c41.379-15.629,89.263-23.155,133-37,16.734-5.3,36.29-4.306,51-11,17.16-7.809,38.58-3.553,55-10,0.67,0.667,1.33,1.333,2,2-0.67,1.333-1.33,2.667-2,4h1v-2l3-5,155-24,102-9c91.08-11.972,208.16-12,320-12,1.31,8.87,8.11,9.447,15,7-1.67-2-3.33-4-5-6v-1h92c0.67,0.667,1.33,1.333,2,2l-3,14h3c2.51-5.01,6.34-8.875,12-8v-7Zm-268,10c-0.7,6.3-2.24,6.318-5,10l-8,2v1c11.32-.652,17.88-0.047,26,3C1514.95,171.385,1512.42,166.4,1505,163Zm137,0c-0.33.333-.67,0.667-1,1,1.33,0.667,2.67,1.333,4,2,0.33-1,.67-2,1-3h-4Zm-351,9c-4.5,7.4-15.53,7.557-21,14v1c9.05,0.76,13.16,2.613,20,1Q1290.495,180,1291,172Zm502,2c-5.9,6.436-13.68,7.619-17,17a49.865,49.865,0,0,0,16-8C1792.33,180,1792.67,177,1793,174Zm-306,3c0.67,0.333,1.33.667,2,1C1488.33,177.667,1487.67,177.333,1487,177Zm167,0,4,1Zm-60,9c-0.33.667-.67,1.333-1,2,1.67-.333,3.33-0.667,5-1Zm45,0c-0.33.667-.67,1.333-1,2,2.9-.531,4.9.794,3-2h-2Zm-45,7c-0.67,1-1.33,2-2,3h5v-1Zm-20,2c1.33,1,2.67,2,4,3v-3h-4Zm182,2c-0.33.667-.67,1.333-1,2,1.67-.333,3.33-0.667,5-1Zm59,8c-0.67.667-1.33,1.333-2,2l8,1c0.67-.667,1.33-1.333,2-2v-1h-8Zm43,7q-0.495,6.5-1,13c1.67-1.333,3.33-2.667,5-4l3-9h-7Zm-640,6c-3.59,3.426-6.75,1.678-9,7h4c6.82-2.566,17.92-3.738,24-6v-1h-19Zm60,0-15,6v4c8.74,14.794,17.7,1.68,21-10h-6Zm428,5v3h4C1708.09,223.576,1709.36,224.384,1706,223Zm-611,2v4l9-1c-0.67-.333-1.33-0.667-2-1C1099.92,224.875,1099.41,225.158,1095,225Zm884,0c-0.67,1-1.33,2-2,3,4.91,0.139,5.41,1.2,8-1-0.33-.667-0.67-1.333-1-2h-5Zm543,0c0.67,0.333,1.33.667,2,1C2523.33,225.667,2522.67,225.333,2522,225Zm-1058,2c-7.02,4.171-14.71,7.479-25,8,4.2,6.693,8.52,10.359,20,10,6.17-6.433,12.49-6.191,15-17Zm1063,0q34.5,12,69,24,94.485,39,189,78c-17.81-16.825-51.15-24.035-74-35-43.75-20.992-86.73-33.068-134-51Q2552.01,235,2527,227Zm-1282,1c0.33,3.333.67,6.667,1,10,1.33-1.667,2.67-3.333,4-5C1248.2,229.328,1249.24,229.562,1245,228Zm340,5-3,3h4c0.67-.667,1.33-1.333,2-2v-1h-3Zm395,14v2C1980.98,247.255,1980.91,248.78,1980,247Zm-956,18c-0.01,3.162-.13,1.418,1,3,6.23,6.528,22.47,1.431,26-3C1041.1,268.357,1035.54,265.924,1024,265ZM952,912c95.49-.237,197.8-2.677,286,3,34.39,2.213,81.24-4.815,108,7,0.48-3.885-.81-0.956,1-4l339,13,252,1,117-2c13.28-4.481,30.4-11.925,47-14l167,4h467l102-4c43.18,6.843,102.6,3.568,141-2,13.34-1.934,93.01-6.971,96-1-3.36,1.972-4.04,2.45-3,6,4.5,10.383,14.38,12.458,17,25l38,1c-13.68-22.592-32.02-51.814-40-78-8.39-27.539-12.27-64.806-26-87q-16.5-32-33-64c-36.33-56.447-101.22-135.773-159-169,0.67,1,1.33,2,2,3,22.86,10.982,43.41,36.612,61,54a622.6,622.6,0,0,1,100,129c10.79,18.356,16.74,41.619,26,59,6.23,11.685,13.15,28.361,14,44h-3c-2.96-14.733-13.67-24.915-21-37-21.25-35.041-42.56-67.511-65-101-9.36-13.973-34.63-31.979-37-50,1.67-1.333,3.33-2.667,5-4l-9,3c-49.29-65.1-116.2-114.269-183-162l-63-35c-9.99-5.492-22.66-6.043-30-14q2.505-5.5,5-11l-90-32-143-41c-41.35-14.043-93.46-14.537-137-29q-20.505-2.5-41-5c-42.32-15.375-100.35-8.618-150-21l-103-12-48-2c-19.45-6.455-44.54-.721-67-5l-111-8c-83.5-.03-191.03-12.361-269,3-25.44,5.011-69.32-4.825-82,10,31.75-.055,65.91-0.856,99-6l163-1c68.31-.006,148.42-2.583,212,9,25.86,4.711,54.06,1.466,80,6,70.99,12.407,144.42,3.084,209,21l34,3c45.15,10.538,96.93,12.917,139,28,19.27,6.909,48.95,2,62,15-1.33.667-2.67,1.333-4,2-13.28-12.43-47.48-9.65-67-15l-113-22-51-5c-47.46-15.186-103.93-7.291-156-17l-39-1c-60.12-10.44-135.54-6-205-6-121.38,0-235.84,2.258-348,17v-3c1.67-2,3.33-4,5-6l-3-1h-12c1.28,5.578,2.33,5.2,6,8-0.33.667-.67,1.333-1,2-43.33.975-94.43,4.292-134,14l-73,8c-26.33,7.378-84.5,19.74-105,13l3,6-3,2L976,395c-45.942,16.312-93.39,21.265-136,40-26.745,11.759-49.363,26.937-75,40-29.82,15.195-63.7,20.559-91,38-34.5,22.042-67.158,46.3-100,70L436,701c-3.116,1.635-4.446-2.379-9,1-14,10.387-32.472,35.814-53,37v-2c-3.657-12.188,22.609-38.274,33-41v5l4-1,3-3v-3c-3.635-.644-3.027-0.4-5-2l2-1c15.571-24.262,49.068-40.34,70-60l-7-7-77,54L296,815c-11.16,16.85-19.148,37.718-33,52-8.457.322-11.7-1.142-14-7-8.634-7.957.254-30.593,3-38l-3,2c-7.647,22.478-26,48.312-37,72l41-6c17.087-4.439,41.44,3.322,56,6h31c15.869,3.659,18.7,18.29,39,22l192,4c40.007,6.567,87.944-4.572,128,2l106,1c46.506,2.917,105.723,3.023,150,3C952.608,921.649,952.045,920.39,952,912ZM2086,275l4,1Zm13,1,3,1Zm11,1,3,1Zm-472,2c2.75,1.551,5.97,2.271,9,1Zm512,2h0Zm18,2,3,1Zm5,1h0Zm9,1h0Zm10,1c0.67,0.333,1.33.667,2,1C2193.33,286.667,2192.67,286.333,2192,286Zm3,1,141,22C2291.14,300.4,2243.94,287.936,2195,287Zm-95,1v3h9ZM988,304c-5.612,4.719-10.616,6.778-12,16l11,3c1.137-7.851,3.869-12.86,12-14l-2-2-2-3h-7Zm1351,6c2.37,2.639,9.46,3.681,13,2Zm240,2,3,1Zm-226,1,9,1Zm10,2c3.1,1.956,9.64,3.3,13,2Zm95,0,3,1Zm-81,3c6.94,4.348,76.12,20.857,82,19C2431.09,333.112,2406.99,319.95,2377,318ZM864,323l-2,1v2h5v-3h-3Zm1822,3,4,1ZM907,329c2.286,1.525,1.215,1.826,4,1Zm1879,0c1.67,1,3.33,2,5,3C2789.33,331,2787.67,330,2786,329Zm6,3c1.33,0.667,2.67,1.333,4,2C2794.67,333.333,2793.33,332.667,2792,332Zm5,2c0.67,0.667,1.33,1.333,2,2C2798.33,335.333,2797.67,334.667,2797,334Zm-337,4c3.61,3.7,13.65,5.47,20,6Q2470,341,2460,338ZM971,339v9l4-1,2-3v-1C974.509,340.645,975.091,340.3,971,339Zm1521,8c2.67,1,5.33,2,8,3C2497.33,349,2494.67,348,2492,347Zm10,3c0.67,0.333,1.33.667,2,1C2503.33,350.667,2502.67,350.333,2502,350Zm3,1,3,1Zm4,1c0.67,0.333,1.33.667,2,1C2510.33,352.667,2509.67,352.333,2509,352ZM676,353l-2,1h6Zm1836,0c0.67,0.333,1.33.667,2,1C2513.33,353.667,2512.67,353.333,2512,353Zm160,0c-1.33,1.333-2.67,2.667-4,4-0.67,2.333-1.33,4.667-2,7h1v-2c4.17-2.664,6.49-4.206,6-9h-1Zm-157,1c0.67,0.333,1.33.667,2,1C2516.33,354.667,2515.67,354.333,2515,354Zm3,1c1.67,0.667,3.33,1.333,5,2C2521.33,356.333,2519.67,355.667,2518,355Zm6,2c0.67,0.333,1.33.667,2,1C2525.33,357.667,2524.67,357.333,2524,357ZM971,360l-3,3-3,12c4.513-.215,5.391-0.708,8-2q1-6.5,2-13h-4Zm-329,2c-1.746,2.817-2.17,2.568-3,7,5.122-1.371,8-1.719,11-5q-0.5-1-1-2h-7Zm1092,4h3v4c-0.67.333-1.33,0.667-2,1h-1v-5Zm6,0c1.33,0.667,2.67,1.333,4,2-0.67.667-1.33,1.333-2,2h-2v-4Zm-788,1-3,4h3l4-2v-2h-4ZM760,381v4h4v-4h-4Zm1847,6c0.67,0.333,1.33.667,2,1C2608.33,387.667,2607.67,387.333,2607,387Zm5,2c1.33,0.667,2.67,1.333,4,2C2614.67,390.333,2613.33,389.667,2612,389Zm5,2q22.995,11,46,22Q2640.005,402,2617,391ZM638,395c-0.742,3.5-.949,3.376,1,6v2h11v-7Zm70,7,3,2C709.2,401.958,710.985,403.293,708,402Zm34,0-3,5,3,1c2.388,2.572,10.361,2.87,14,1l-2-3Zm15,5,2,1Zm1907,6,49,27C2702.11,429.211,2679.92,417.5,2664,413ZM521,420l-6,7,8-6Zm637,11,5,1c-0.33.667-.67,1.333-1,2h-4v-3Zm-422,4q-1,2.5-2,5l9,2v-1Zm1978,5c1.75,2.4,1.03,1.67,4,3C2716.67,442,2715.33,441,2714,440Zm5,3c0.67,0.667,1.33,1.333,2,2C2720.33,444.333,2719.67,443.667,2719,443Zm3,2,30,19Zm64,15c-0.67,1-1.33,2-2,3,4.03-.4,3.91-0.327,6-2Zm-33,4c0.67,0.667,1.33,1.333,2,2C2754.33,465.333,2753.67,464.667,2753,464ZM488,465H472q0.5,5.5,1,11c6.4-1.276,10.869.231,13-6C488.078,467.976,487.365,469,488,465Zm2268,1c0.67,0.667,1.33,1.333,2,2C2757.33,467.333,2756.67,466.667,2756,466Zm3,2c0.67,0.667,1.33,1.333,2,2C2760.33,469.333,2759.67,468.667,2759,468Zm77,12c-11.24,6.475-20.75,7.281-25,21,9.32-2.345,16-2.507,21-9-5.04-1.274-5-.269-6-6C2828.58,485.386,2837.92,480.693,2836,480Zm152,36c-0.33,1.333-.67,2.667-1,4h5l6-3v-1h-10Zm-10,1c-0.33.667-.67,1.333-1,2h2c0.33,0.667.67,1.333,1,2C2979.09,517.349,2980.04,518.955,2978,517ZM501,519l-1,2h4l-2-1Zm2321,1,3,4v-4h-3Zm115,3c2.79,3.135,7.01,3.989,13,4l3-4h-16ZM594,537l2,1Zm2263,1,3,3Zm8,6c0.67,0.667,1.33,1.333,2,2C2866.33,545.333,2865.67,544.667,2865,544Zm89,19-4,1v1q1.995,5.5,4,11h7l-3-13h-4Zm20,16,4,1Zm1,18c-0.18-5.807-.98-8.228-4-11h-1q-1.005,5.5-2,11h7Zm-71,75c1.33,1,2.67,2,4,3-0.33.667-.67,1.333-1,2h-3v-5Zm268,1h0Zm-307,12c3.58,1.782,1.18-.531,3,3h-3v-3ZM548,696c3.651,1.059,2.941.814,5,3l-2,2h-2Q548.5,698.5,548,696Zm2342,16c1.78,3.231,2.61,2-1,4C2889.33,714.667,2889.67,713.333,2890,712ZM316,717l-7,10C312.808,724.308,317.105,718.7,316,717Zm2577,1h3v5h-1c-0.67-.333-1.33-0.667-2-1v-4ZM308,728l-3,5,3-2,1-3h-1Zm2507,0c1.67,0.333,3.33.667,5,1l-3,3C2816.33,730.667,2815.67,729.333,2815,728Zm8,0h6c-0.33,1.333-.67,2.667-1,4-0.33-.333-0.67-0.667-1-1C2823.47,730.4,2825.16,732.358,2823,728Zm-3,4,3,2c-1.33.667-2.67,1.333-4,2C2819.33,734.667,2819.67,733.333,2820,732ZM304,734l-1,2,2-2h-1Zm2887,2c-0.33,1.333-.67,2.667-1,4h3c-0.33-1.333-.67-2.667-1-4h-1Zm-358,1c3.58,1.782,1.18-.531,3,3h-1C2834.33,739,2833.67,738,2833,737Zm226,4c-0.33.667-.67,1.333-1,2h5C3061.67,742.333,3060.33,741.667,3059,741Zm-231,8c2.04,1.8.71,0.015,2,3h-2v-3Zm385,0c-1.33,2.666-2.67,5.334-4,8,0.67,0.333,1.33.667,2,1l3-2c0.33-.667.67-1.333,1-2C3214.36,750.365,3214.6,750.973,3213,749Zm-353,4h3c-0.67,1.333-1.33,2.667-2,4-1.8,2.042-.02.707-3,2C2858.67,757,2859.33,755,2860,753Zm-31,2c3.58,1.782,1.18-.531,3,3h-3v-3Zm27,7h3c-0.33,1.667-.67,3.333-1,5l-4,1v-3C2856.04,763.2,2854.71,764.985,2856,762Zm-23,11h5v4C2833.51,775.784,2834.78,776.938,2833,773Zm23,14h4v3l-3,1C2856.67,789.667,2856.33,788.333,2856,787ZM618,791l3,2v1h-3v-3ZM251,811l3,1Zm1,8v0Zm2989,9c1.8,2.042.02,0.707,3,2C3242.2,827.958,3243.98,829.293,3241,828Zm-597,94q-4.005,3.5-8,7c0.24,5.358.36,5.481,3,8C2640.59,931.1,2644.81,927.193,2644,922ZM992,928l2,1Zm42,1h0Zm59,1h0Zm25,0h0Zm11,1h0Zm85,1c8.49,6.043,36.21,2,49,2l151-1Zm430,5c-0.33,3-.67,6-1,9,5.99-3.571,12.99-7.344,17-13Zm-614-1,3,1Zm-10,7c-0.33-2-.67-4-1-6h-1c-4.37,1.563-4.84,2.374-7,6h9Zm1612-4c-3.24,4.626-4.37,3.105-5,11l7-1c2.02-2.078,1-1.365,5-2C2637.73,941.91,2636.42,940.829,2632,939ZM215,942c6.108,4.35,12.535,6.99,23,7q-0.5-1-1-2Zm1295,4-6,3h2c2.33,1.333,4.67,2.667,7,4v-7h-3Zm1546,2q-14.505,3.5-29,7c21.11,0.309,38.02-3.129,55-6v-1h-26ZM221,949q-0.5,1-1,2h5Zm985,0c-5.04,5.635-11.27,6.72-13,16h14c-1.33-1.333-2.67-2.667-4-4v-1Zm219,4c-1.16,7.4.25,15.689-2,22h9a51.33,51.33,0,0,1,0-22h-7Zm1023,0c1.8,2.042.02,0.707,3,2ZM552,954v3c4.472-1.307,2.009.662,4-3h-4Zm628,0,3,3Zm475,0-12,8v4h1c2.94-5.711,9.79-5.719,14-10-0.67-.667-1.33-1.333-2-2h-1Zm507,2c-0.67.333-1.33,0.667-2,1l6,1C2164.67,957.333,2163.33,956.667,2162,956Zm807,2v7h6q14.505-3.5,29-7h-35ZM648,960c-4.659,1.938-6.518.672-9,5l20,4,4-8Zm854,4-4,1v2h3c1.33-1,2.67-2,4-3h-3Zm489,3c-0.33.667-.67,1.333-1,2h4c-0.67-.333-1.33-0.667-2-1C1991.67,967.667,1991.33,967.333,1991,967Zm778,1v3l7-1h-2C2772.02,968.4,2772.61,968.7,2769,968Zm45,4c-3.15,2.087-8.23,2.206-14,2v4c6.97,0.942,12.91,1.033,15-6h-1Zm-575,5v4h4c0.33-1.333.67-2.667,1-4h-5Zm610,0v4h8c-0.67-.667-1.33-1.333-2-2C2852.95,976.9,2853.24,977.365,2849,977Zm-912,5-6,4c0.33,0.667.67,1.333,1,2l6-2c0.33-.667.67-1.333,1-2C1938.33,983.333,1937.67,982.667,1937,982ZM505,984l-5,4v2l2,1h10l7-7H505Zm1397,2c-0.67,1.667-1.33,3.333-2,5,2.65-1.987,1.96-1.127,3-5h-1Zm-299,8c-0.33.667-.67,1.333-1,2l3,1C1604.33,996,1603.67,995,1603,994Zm-183,5c0.33,2,.67,4,1,6,1,1.33,2,2.67,3,4v-2c1.38-3.58.41-5.15-1-8h-3Zm1850,0c0.67,0.333,1.33.667,2,1C3271.33,999.667,3270.67,999.333,3270,999Zm-842,9c-12.17,4.57-17.44,3.73-25,12,0.33,3,.67,6,1,9h1c3.89-6.78,12.39-12.02,22-13-1.8,5.81-3.82,8.04-1,14h3c3.64-7.17,6.77-13.13,4-22h-5Zm-527,4h0Zm166,0h0Zm821,7c-1,1.33-2,2.67-3,4h4c0.67-.33,1.33-0.67,2-1v-1C2890,1020.33,2889,1019.67,2888,1019Zm-1300,11c-1,.33-2,0.67-3,1,0.33,0.67.67,1.33,1,2,5.67-.05,6.39-0.27,9-3h-7Zm1367,1q-10.5,1.995-21,4v2h20c0.67-2,1.33-4,2-6h-1Zm-1790,9c1.33,0.33,2.67.67,4,1C1167.67,1040.67,1166.33,1040.33,1165,1040Zm-75,17h0Zm1930,66c128.57,1,205.99,84.78,233,190q4.005,33.495,8,67c-1.77,6.32-5.8,15.18-4,26,4.52,27.13,5.23,67.36,0,94q-1.995,58.5-4,117-0.495,27.99-1,56c-13.09,71.13-.85,154.28-19,220-14.64,53-41.61,86.56-79,119-38.75,33.63-91.03,55.27-164,48l-66-3c-30.68-7.92-58.62-22.44-79-41,0,0-8.47.5-11-1-11.09-6.58-43.19-30.75-52-40-23.81-24.99-37.52-109.22-38-158-0.11-11.39-2.19-59.56,3-63-4.99-2.32-2.73-64.19-1-73V1557c2.15-4.21,6.99-8.4,9-14q-4.995,3-10,6c-0.35-9.06-3.54-11.11-5-17q1.005-24.99,2-50l6-99c4.9-26.51-.96-54.07,8-78,7.7-20.57,20.19-36.31,30-54,8.01-14.45,6.71-33.61,18-44q13.995-7.995,28-16c31.51-24.58,73.26-43,113-59,12.29-4.95,21.34-.41,31-1Q2998.005,1126.995,3020,1123Zm30,28c-1.94,2.65-2.25,2.44-3,7h1c2.58-3.6,6.86-4.11,10-7h-8Zm-922,824c2-.33,4-0.67,6-1-4.61-3.45-2.41-12.92-3-17,2-.67,4-1.33,6-2q-1.995-6-4-12h6c-0.33-1-.67-2-1-3-2.67-1.69-4.91-2.47-4-5,3.14-26.84,11.47-77.22,6-114-4.42-29.71-6.83-97.68-2-130,8.11-54.3,7.92-121.24,0-174-3.32-22.13.68-44.21-5-63-5.59-18.5,2.32-66.24,5-84q3.495-67.5,7-135v-29c-1.36-2.51-4.64,1.37-4-5,1.47-14.68,8.09-19.68,9-34q12.495,0.495,25,1c-5.26-.9-4.56-0.31-6-5,30.97,0.16,56.83,11.81,73,3v-2c37.87,7.98,90.4,2.17,132,2q15-1.005,30-2c11.14,3.38,26.75,1.78,39,5l33,9c-1.38,4.46-2.5,4.14-5,7q4.005-3,8-6,27,12.495,54,25c42.94,30.7,75.66,75.91,101,124q9,36.99,18,74,0.495,18.495,1,37c6.77,34.06,11.97,98.7,5,137v42c-7.88,46.83-1.76,99.06-12,142-2.65,11.12-1.26,51.75-10,51-1.33,2-2.67,4-4,6,4.31,0.21,4.83.26,7,2-13.82,84.26-22.34,105.89-70,158-6.6,7.22-10.61,15.5-16,24-12.35,19.46-46.39,29.89-70,38-1.77-4-.25-3.52-5-5v8q-43.995,11.505-88,23c0.33-1.67.67-3.33,1-5-24.07-.01-73.45-2.03-94,5l-49-3q-30,2.505-60,5c-20.79-4.28-44.34-19.52-62-29-0.31-7.14.08-12.49,2-14,2.33-1.33,4.67-2.67,7-4-4.89-6.61-3.04-17.94-4-27,1.67,0.33,3.33.67,5,1q-4.995-2.505-10-5c2.33-1.67,4.67-3.33,7-5C2128.59,1981.97,2128.19,1981.36,2128,1975Zm-795-495c-11.8-.94-21.63-1.48-31,0-2.64-3.14-8.01-8.38-10-9-0.02,3.06.96,1.4-1,4-1-1.33-2-2.67-3-4-0.33,2-.67,4-1,6-0.67-.33-1.33-0.67-2-1-0.33-1.67-.67-3.33-1-5v8c-16.19-1.68-17.61-12.96-36-10v-5c-4.35,1.75-6,1.46-12,1,0.33-3.33.67-6.67,1-10-3.69.3-5.46-2.57-6-1-3.02,2.11-2.32,2.43-6,2v10c-8.44-.13-10.12-2.44-15-4-0.35-7.7-4.11-7.48-5-12-0.37-1.88,2.93-8.08,2-13-5.91-31.29-2.43-78.07-14-106-1.85-4.45-7.25-6.59-9-10-3.34-6.51,1.35-9.99-5-14-9.39-5.93-87.18-13.99-88-16-1.67,1.33-3.33,2.67-5,4-14.18-9.41-31.17.01-42,8-36.79,27.12-50.09,42.06-59,98h-4v-6c-0.667.33-1.333,0.67-2,1-2.6,92.69,37.06,131.49,106,160q38.49,10.005,77,20c85.19,43.85,149.85,102.6,181,201,7.42,23.45,17.47,69.05,11,99l-9,48q-13.005,24.495-26,49c-2.88,6.99-1.66,13.88-6,19-21.48,25.33-63.9,54.03-98,65-56.99,18.33-156.33,23.72-208,0q-8-1.005-16-2a306.677,306.677,0,0,1-55-51c-12.773-15.15-40.118-26.02-44-49,3.724-1.99,2.534-.81,3-6-6.388,1.03-4.575,2.44-9,1-6.683-17.82-21.353-39.26-29-56-5.654-12.37.888-34.67,3-46,4.991-26.76-8.17-45.08-3-65h1c1.333,0.67,2.667,1.33,4,2-2.627-3.62-4.065-4.14-5-10,0.667-.67,1.333-1.33,2-2,0.333,0.67.667,1.33,1,2,1.667,1.33,3.333,2.67,5,4h1q1.5-4.995,3-10h4c1.333,1.33,2.667,2.67,4,4,1.667-1.67,3.333-3.33,5-5,14.37,2.76,24.314,1.67,34,4q1-5.505,2-11c9.723,0.63,14.684,1.67,21,0,1.3,4.66.57,2.91,4,5,0.333-1.33.667-2.67,1-4q-2.5-7.005-5-14c3,0.67,6,1.33,9,2,0.426,5.09.574,5.94,4,8-1.314-3.24-2.51-6.39-1-10,1,0.67,2,1.33,3,2,0.211,7.64,1.907,7.89,5,12,3.635-.64,3.027-0.4,5-2-5.341-3.96-4.73-24.25,0-27q4,10.005,8,20c2.039-2.19,4.175-2.48,8-3,0.4,4.03.327,3.91,2,6,2.333-.67,4.667-1.33,7-2v5c-2.333.67-4.667,1.33-7,2h2c1.667,1.33,3.333,2.67,5,4,1.307-4.47-.662-2.01,3-4,2.424,6.02,6.313,7.57,10,12-1,15.8-7.895,25.23-13,35-9.744,18.64,17.08,64.23,23,72-0.33.67-.67,1.33-1,2-9.18.19-14.706,0.39-22-2,4.424,14.69,17.29,2.66,29,7q6,6.495,12,13c13.86,8.95,27.1,24.21,42,30q16.995-.495,34-1c39.46-7.77,55.34,4.64,80-19q8.505-7.995,17-16,1.995-19.995,4-40c11.09-31.92-15.12-85.74-36-107q-10.995-7.005-22-14c-15.73-15.43-25.51-39.15-54-36,0.33-1.33.67-2.67,1-4-31.72-1.31-56.72-19.32-79-31l-36-12c-65.9-36.68-105.787-87.29-129-163v-29c-3.14-16.61-9.39-51.06-4-76,4.354-20.15,9.638-50.56,19-72,13.134-30.08,34.538-47.13,54-70-2.75-2.92-3.067-3.73-3-10,22.633-.82,22.381-17.19,35-27,12.8-9.96,31.756-14.77,46-24q46.995-4.995,94-10c47.25-7.78,79.62,1.23,112,16,50.2,22.9,86.72,45.04,108,99l12,45c6.62,15.54-.56,60.99,5,71l6,3c6.74,10.74-2.73,24.64,1,36,2.35,7.16,4.38,6.1,5,16-4.99,2.99-8.84,3.63-9,12C1336.11,1473.91,1334.34,1472.29,1333,1480ZM506,1167c4.238,0.31,3.964-.06,6,2,4.2,4.31,3.345,13.06,8,17,1.8-2.04.015-.71,3-2-0.111,14.7,3.218,39.96,10,50-3.285,13.1,18.906,84.77,24,100,32.1,95.95,53.146,192.48,89,282,14.815,36.99,27.859,75.38,41,111,3.4,9.21,9.352,31.98,6,36-5.293,4.24-12.659,3.08-20,6q0.5,1.5,1,3c5.1,1.41,11.953,2.4,15,6,0.333,1.33.667,2.67,1,4-5.656.38-6.357,0.96-9,4h13c-2.458-6.42-1.123-11.07,0-18,1.667,0.67,3.333,1.33,5,2,0.576,12.07,6.4,23.52,10,33,10.671,28.1,12.843,53.77,26,81,2.7,5.59,9.286,8.65,12,13q2.5,10.5,5,21c1.872,3.67,8.675,8.04,10,11,1.853,4.14-4.591,4.65-3,11,3.063,12.23,10.7,20.4,15,38h-5c0.009,19.61-1.9,38.11,0,51H739l3,6c-24.165,18.98-53.514,8.73-80,9-6.21.06-11.105,3.87-20,4v-9c7.658,0.12,10.775-1.26,15-4v-7h-1c-8.643,5.84-14.852,9.24-30,9v-4c4.709-1.17,4.683-1.78,7-5-4.184-2.24-2.959-3.38-2-8,1.333-1.33,2.667-2.67,4-4-2.333.67-4.667,1.33-7,2,0.333-1.67.667-3.33,1-5-0.333-1.67-.667-3.33-1-5,1.667-.67,3.333-1.33,5-2-14.831-10.76-9.249-26.3-15-38-8.925-18.16-17.069-38.53-28-57-9.058-15.31-37.121-14.09-58-18-43.223-8.08-100.457-5-151-5-22.96,0-50.331-2.26-65,6-3.076,10.12-9.679,51.6-6,53-1.554,5.06-1.532,4.67-6,4,3.221,3.68,5.958,4.57,6,9-3,.33-6,0.67-9,1,0.333,2.33.667,4.67,1,7q9.5,1.005,19,2v7c-10.463,1.35-10.2,3.3-19,1l1,3c2.666,1.33,5.334,2.67,8,4-0.333.67-.667,1.33-1,2q-7,1.005-14,2h10c-0.333,2.33-.667,4.67-1,7q-6.5.495-13,1c3.14,2.06,2.069.48,3,5-2,.67-4,1.33-6,2v1c7.836-.35,13.759.08,18,3-1.333,1.33-2.667,2.67-4,4-3.666.33-7.334,0.67-11,1,5.223,0.42,3.984-.66,6,3q-10.5,4.995-21,10h14v7c-5.172,1.81-15.536,4.92-19,9,5.223,0.42,3.984-.66,6,3-13.628-.37-30.3-0.77-40,4h7v5c-35.4-.27-92.459-2.19-106-26,3.213-4.08,3.643-10.86,8-13v-1c-7.26.25-7.775-.1-14-1v-5c9.961-.94,10.358-5.24,14-12-0.667-.67-1.333-1.33-2-2-2.166-2.52-3.245-1.66-5-5,8.473-1.14.113-5.07,10-6-0.4-3.5-.512-2.11,1-5-5.223-.42-3.984.66-6-3,4.912-.68,3.671-0.22,6-3-2.666-.67-5.334-1.33-8-2,0.667-2.33,1.333-4.67,2-7h4l-5-3c-0.7-6.48.573-4.95,1-12,5.307-.43,6.543-0.91,9-4-4.611-.91-4.159-0.24-6-4,1.109-1.3-.415-7.69,1-13,1.667-.67,3.333-1.33,5-2-3.583-1.78-1.184.53-3-3h7v-11c-5.027-1.97-5.515-3.63-13-4,3.115-6.13,12.858-5.68,17-11,7.743-9.94,27.155-60.01,17-73,5.667-5.67,10.443-7.77,11-19l10,6c-1.816-4.07-4.156-5.19-8-7-0.817-27.96,16.37-52.53,26-78q3-17.505,6-35h-6c0.248-13.34,8.39-22.99,14-32-4.768.59-5.033,1.81-7-3,14.79-9.2,5.735-40.11,24-50,1.714,3.98.549,2.78,5,4v-7c-2.333.33-4.667,0.67-7,1v-1c10.11-17.64,14.009-39.02,18-60q6.5-10.005,13-20c8.026-21.68,16.007-51.74,28-77q7.5-25.995,15-52h2c7.023-22.27,6.621-64.87,15-78,1,0.67,2,1.33,3,2-0.154-11.71,2.377-17.73,4-27h7c0.028-9.06-2.1-9.23-4-15,9.075-22.63,17.569-44.63,16-70-0.353-5.7.423-4.16,4-6q3,4.005,6,8v-12c6.38,0.38,6.046,1.29,7,3,4.72-4.46,4.059-10.29,10-14,3.31,1.05,3.56,3.31,6,4,1-.67,2-1.33,3-2,17.36-7.47,55.163,2.93,67,1,8.1-1.32,10.057-6.48,20-7,0.667,1.33,1.333,2.67,2,4v-2c1.333-2.33,2.667-4.67,4-7,5.525,3.14,3.872,2.05,10,0,1.059,3.65.814,2.94,3,5C503.956,1175.14,505.386,1174.2,506,1167Zm1286,0c4.24,0.31,3.96-.06,6,2,21.89,23.05,28.55,127.03,43,166q38.49,123.495,77,247c13.83,30.9,22.11,65.16,35,98,9.39,23.93,23.72,48.78,27,78l-2,2c-4.4.58-14.24,0.37-17,3-2.04,1.8-.71.02-2,3,9.83,1.36,14.37,1.57,22-3q10.005,32.49,20,65c12.43,34.74,25.91,76.44,47,102-1.33,2.67-2.67,5.33-4,8,8.68,12.56,11.93,23.18,16,40h-5v51h-30l3,6c-22.77,17.88-54.73,8.99-80,9-6.42,0-11.08,3.85-20,4v-11h-10c-1.2-11.11-3.81-12.22,3-21-2.33.67-4.67,1.33-7,2,0.33-1.67.67-3.33,1-5-0.9-4.71,1.77-6.14,3-8-7.18-4.47-7.4-17.55-15-21,4.36-17.6-7.58-30.26-16-45-5.9-10.32-7.69-27.19-17-34-15.18-11.1-38.13-8.18-60-13-40.41-8.91-96.28-4-143-4q-29.49,1.005-59,2c-5.82,2.41-10.45,7.19-19,11,5.79,5.62,10.24,3.45,10,16-2.87,7.73-7.52,28.49-3,30-1.55,5.06-1.53,4.67-6,4,0.33,0.67.67,1.33,1,2,4.17,1.76,4.41,1.42,5,7h-9c0.33,2.67.67,5.33,1,8q9.495,1.005,19,2v7c-10.61,1.03-10.44,3.45-19,1,0.33,1,.67,2,1,3,2.33,0.67,4.67,1.33,7,2v4q-7.005,1.005-14,2h10c-0.67,2.33-1.33,4.67-2,7q-6,.495-12,1c4.08,4.23.2,5.48-3,8,8.69-.63,15.31-0.73,18,5-1.33.67-2.67,1.33-4,2-3.67.33-7.33,0.67-11,1,4.03,0.4,3.91.33,6,2v1q-10.5,4.995-21,10,7.5,0.495,15,1v1c-0.67,1.33-1.33,2.67-2,4-4.4,5.21-13.48,4.93-18,10,5.41,0.13,4.99-.65,7,3h-20q-10.5,1.995-21,4h8v3c-0.33.67-.67,1.33-1,2-29.07.21-102.24-3.84-105-28,4.75-3.28,1.34-8.24,7-11v-1c-7.17.69-11.26,1.59-14-4,1-.67,2-1.33,3-2,2.33-.67,4.67-1.33,7-2q1.995-6,4-12c-3.05.48-6.16-.44-7-5,4.2-.55,7.75-5.25,10-10v-1c-4.95-.81-2.98.67-5-3,3.63-.64,3.03-0.4,5-2-2.33-1.67-4.67-3.33-7-5v-3c2-.67,4-1.33,6-2l-6-3c0.36-10.19,3.74-9.77,10-15-6.31-5.45-2.82-9.26-6-12,1.13-5.82,4.97-10.75,11-11-0.96-3.72-.75-9.78-2-11-3.53-2.79-8.22-3.13-10-8,35.13-2.16,25.96-52.57,38-79-4.28.55-3.16,1.61-5-3,14.94-4.72,8.92-19.33,13-35,5.49-21.06,19.12-44.26,27-64,4.53-11.35,1.9-24.25,5-32-2.33-.33-4.67-0.67-7-1,1.95-13.32,9.35-20.28,15-32-2,.67-4,1.33-6,2-0.33-1-.67-2-1-3v-1c10.55-5.7,5.82-14.27,10-26q7.995-15,16-30c10.36-22.49,10.41-60.24,28-80-1.61-2.28-1.81-1.77-3-5,18.59-9.26,14.18-41.13,23-61,2.74-6.17,9.07-14.5,12-22,5.48-14.05,6.49-29.51,13-42-0.19-4.21,4.23-40.46,7-49,2.49-7.69,7.06-13.99,5-25,1.33,0.33,2.67.67,4,1,1.37-33.21,15.8-61.38,25-88,2.59-7.49-3.63-24.63,3-29q3,4.005,6,8c0.06-8.01-.2-11.53,7-11,0.88,3.04,1.44.26,3-1-1.4-5.27.84-5.52,4-10,1.67-.33,3.33-0.67,5-1,1.67,1.33,3.33,2.67,5,4,13.2-10.65,56.67,1.29,69-1,8.18-1.52,9.87-6.62,20-7v4c2.78-2.07,3.51-4.74,5-8,5.25,0.99,4.29,3.39,7-1,4.46,1.38,4.14,2.5,7,5C1789.39,1173.56,1791.4,1176.19,1792,1167Zm384,2c2.52,2.13,8.32,2.87,12,1Q2182,1169.505,2176,1169Zm762,2-5,5c2.67-1.33,5.33-2.67,8-4v-1h-3Zm-784,1,2,2Zm922,3c-0.33,1-.67,2-1,3,0.67-1,1.33-2,2-3h-1Zm-1902,13c-0.33.67-.67,1.33-1,2h3c-0.33-.67-0.67-1.33-1-2h-1Zm-155,4c-1.67,1-3.33,2-5,3,0.24,5.36.36,5.48,3,8h1q2.5-5.505,5-11h-4Zm670,14c-1.52,1.93-1.79,1.77-4,3v4h1c2.87-2.09,5.55-3.02,10-4-0.67-1-1.33-2-2-3h-5Zm1418,0c0.58,2.94-.89,1.91,3,4v-1Zm-898,7h0Zm-532,15c-0.33,1-.67,2-1,3h3c1-.67,2-1.33,3-2C1680.33,1228.67,1678.67,1228.33,1677,1228Zm1422,0c1.96,3.73-.43,1.64,4,3v-3h-4Zm-2718,1-15,6c0.667,0.67,1.333,1.33,2,2,1.72,5.1,4.316,7.9,9,10,9.152,3.18,17.918-2.81,22-8C396.545,1231.72,390.9,1228.79,381,1229Zm772,3q-8.505,1.995-17,4c-0.33,1.33-.67,2.67-1,4,0.67,0.33,1.33.67,2,1,8.87,2.02,16.11-.93,18-9h-2Zm1406,2c1,0.33,2,.67,3,1C2561,1234.67,2560,1234.33,2559,1234Zm375,0c-0.33,1-.67,2-1,3C2934.37,1234.85,2934.82,1236.46,2934,1234Zm144,3c1,0.33,2,.67,3,1C3080,1237.67,3079,1237.33,3078,1237Zm-900,3c-0.33.67-.67,1.33-1,2h4c-0.67-.33-1.33-0.67-2-1Zm-1233,1q-2,4.005-4,8h2c2.17,2.22,4.3,2.1,9,2q0.5-1.5,1-3c-0.667-1.33-1.333-2.67-2-4Zm311,14c0.67,1.33,1.33,2.67,2,4C1257.33,1257.67,1256.67,1256.33,1256,1255Zm-894,3c-0.333,1.33-.667,2.67-1,4h8v-1c-1-.67-2-1.33-3-2C364.667,1258.67,363.333,1258.33,362,1258Zm2638,7q-45,14.505-90,29c-28.85,21.2-27.01,82.1-27,135q-0.495,22.995-1,46c-7.95.98-14.13,3.9-18,9,7.59-.39,14.55.21,18,4q1.005,40.5,2,81c7.07,45.57,8.56,119.13,1,164-3.86,22.89,3.97,45,0,64-6.04,28.91,5.32,96.03,18,103,1.67-.33,3.33-0.67,5-1,3.35,19.13,87.16,34.36,116,23,32.56-12.83,42.62-39.34,58-73,7.29-15.95-.05-56.08,7-72q0.495-47.49,1-95c2-3.81,4.49-5.56,6-8-2,.33-4,0.67-6,1-0.06-27.83,1.28-54.13,8-73v-34c5.52-34.72,3.97-71.32,7-114,0.98-13.76,4.21-33.88,2-48-7.3-46.7-.6-86.45-25-114C3066.15,1274.1,3032.35,1265.8,3000,1265Zm-1777,26-9,6c6.26-.13,7.24-1.21,11-3C1223.74,1290.98,1225.02,1292.8,1223,1291Zm1298,5c0.67,0.33,1.33.67,2,1C2522.33,1296.67,2521.67,1296.33,2521,1296Zm-242,4c1.98,1.86,6.04,2.11,8,4,2.04,1.8.71,0.02,2,3-20.95,2.37-13.73,43.42-14,66q-2.505,27.99-5,56,1.5,60.99,3,122c-6.22,1.76-6.75,3.44-9,9,3-.67,6-1.33,9-2,1.54,19.98,2.64,45.95,2,69-0.18,6.35-3.59,7.71-3,12,5.62,40.64,7.51,105.34,2,146v131c64.43,0.14,139.69,18.49,179-17,17.07-15.41,28.57-38.07,37-62,2.82-8.02,3.05-23.36,7-33q1.5-24.495,3-49c6.94-35.13,2.56-83.44,10-121,3.67-18.51,1.04-41.74,4-60,14.25-88.04,1.32-187.82-37-232C2436.96,1295.84,2362.21,1304.63,2279,1300Zm232,13c-0.67,3-1.33,6-2,9,0.33,1,.67,2,1,3,0.67-.33,1.33-0.67,2-1q2.505-5.505,5-11h-6Zm75,11c1,0.33,2,.67,3,1C2588,1324.67,2587,1324.33,2586,1324Zm-1683,3c-0.333.67-.667,1.33-1,2h4c-0.667-.33-1.333-0.67-2-1C903.667,1327.67,903.333,1327.33,903,1327Zm1588,0c3.26,1.87,3.4,1.49,8,1v-1h-8Zm-1977,1c1.817,4.08-1.264,3.14,5,4-0.333-1.33-.667-2.67-1-4h-4Zm-124,6c1,0.67,2,1.33,3,2C392,1335.33,391,1334.67,390,1334Zm2754,4c1,0.33,2,.67,3,1C3146,1338.67,3145,1338.33,3144,1338Zm-2770,4v4c3.651-1.06,2.941-.81,5-3h-2C376,1342.67,375,1342.33,374,1342Zm2208,7c-0.33,1.33-.67,2.67-1,4,1.67-.67,3.33-1.33,5-2v-1C2584.67,1349.67,2583.33,1349.33,2582,1349Zm-764,4q-5.505,4.995-11,10,6,1.005,12,2C1819.82,1360.1,1820.39,1356.54,1818,1353Zm752,2c-0.33,1.33-.67,2.67-1,4h1c0.33-1.33.67-2.67,1-4h-1Zm-1353,13,2,2c1.67-.33,3.33-0.67,5-1C1221.67,1368.67,1219.33,1368.33,1217,1368Zm538,0c0.33,0.67.67,1.33,1,2C1755.58,1369.07,1756.8,1369.32,1755,1368Zm-778,5-14,21c4.419-1.74,7.443-3.65,12-3C974.341,1384.28,979.355,1376.79,977,1373Zm-95,13c-0.333.67-.667,1.33-1,2h4c-0.667-.33-1.333-0.67-2-1C882.667,1386.67,882.333,1386.33,882,1386Zm938,4c1.33,0.33,2.67.67,4,1C1822.67,1390.67,1821.33,1390.33,1820,1390Zm414,0c-0.33,1.33-.67,2.67-1,4,0.67-1.33,1.33-2.67,2-4h-1Zm-1725,7h0Zm363,6q-7,3.495-14,7l2,3q5.5,3.495,11,7c-1.673-2.99-2.938-4.75-2-8l6-9h-3Zm1961,4c-2.33.67-4.67,1.33-7,2v2h1c2.67-1.33,5.33-2.67,8-4h-2Zm386,0c-0.67.33-1.33,0.67-2,1h6C3221.67,1407.67,3220.33,1407.33,3219,1407Zm-1509,2v5c1.67-1,3.33-2,5-3v-2h-5ZM549,1419l2,3C549.741,1418.98,551.018,1420.8,549,1419Zm1676,6c0.64,2.19-.93,4.02,3,3,2.71,2.67,2.18,1.89,5,0C2230.33,1427,2227.67,1426,2225,1425Zm-1830,1c-1.333,1.67-2.667,3.33-4,5h3c4.65-1.5,6.976-1.77,9-4v-1h-8Zm465,15q0.5,8.505,1,17l4-3v-1C865.539,1446.2,865.565,1443.1,860,1441Zm1913,4v4h4v-4h-4ZM951,1471l-4,6h8q-0.5-3-1-6h-3Zm-564,5-4,3c0.333,1.67.667,3.33,1,5,1,0.67,2,1.33,3,2,2-.67,4-1.33,6-2,0.333-2.67.667-5.33,1-8h-7Zm95,129c-1.726-32.13-46.362-99.97-36-118-6.739,2.15-8.148.63-11-4-1.038,4.32-.352,2.8-3,5-6-2.4-9.77-1.62-15,1v4h2l12,3c-10.6,60.63-34.981,130.29-58,184-3.065,7.15-20.113,64.73-16,68,0.333,0.67.667,1.33,1,2,23.453,0.18,46.492-3.46,68-7,40.294-6.64,72.5,6.99,110,7q-7.5-13.995-15-28-6.5-19.005-13-38c-2.574-6.1-3-24-3-24-6.7-6.22-22.861-43.57-18-55h-5Zm1238-122-15,69-9,9q-1.005,10.995-2,22-7.5,18.495-15,37c-10.9,21.21-10.35,49.11-25,66,3.43,0.92,1.76-1.06,3,3-7.46,19.16-9.79,39.57-17,59h3c15.76,13.68,69.03-14.73,86-3v1c-15.89,3.74-29.49,10.93-48,12v3c5.8,0.61,6.55.96,8,6,12.1-4.45,33.31-4.7,46-9v-15c29.77,0.04,60.4,13.13,88,6v-1c-7.81-7.08-14.23-23.38-18-31,0.67-2.67,1.33-5.33,2-8-1.67-.33-3.33-0.67-5-1q-7.005-24.495-14-49-19.005-53.49-38-107C1742.91,1533.48,1734.29,1492.06,1720,1483Zm1116,17c1.8,2.04.02,0.71,3,2C2838,1501.33,2837,1500.67,2836,1500Zm-6,9q-7.005,10.5-14,21h5c2-.67,4-1.33,6-2C2829.07,1523.12,2833.14,1516.13,2830,1509Zm-1189,5c-2.88,3.31-3.8,4.48-4,11h1l3-3c1.33-.33,2.67-0.67,4-1v-7h-4Zm-761,4c-1.984,1.68-3.856,2.19-7,3v1c2,0.33,4,.67,6,1l4-3C882,1519.33,881,1518.67,880,1518Zm899,0c1,0.33,2,.67,3,1C1781,1518.67,1780,1518.33,1779,1518Zm1351,3c-1,.67-2,1.33-3,2,0.33,0.67.67,1.33,1,2h4C3131.33,1523.67,3130.67,1522.33,3130,1521Zm111,4c1,0.33,2,.67,3,1C3243,1525.67,3242,1525.33,3241,1525Zm-1403,1-3,3q13.005-.495,26-1Q1849.5,1527,1838,1526Zm-911,2c-0.333.67-.667,1.33-1,2,0.667-.67,1.333-1.33,2-2h-1Zm-593,17c-6.085.4-6.639,1.49-10,4v13c0.667-.33,1.333-0.67,2-1C328.418,1554.28,332.755,1553.52,334,1545Zm1361,1c1.33,0.33,2.67.67,4,1C1697.67,1546.67,1696.33,1546.33,1695,1546ZM515,1558c-1.76,13.5-25.066,30.34-20,40,1.951,4.71,3.9,5.61,8,8,1-.67,2-1.33,3-2,0.78-12.86,6.733-25.28,20-26l-6-18C518.333,1559.33,516.667,1558.67,515,1558Zm15,3-2,3v1h4v-1Zm1130,3v10h1c3.63-.64,3.03-0.4,5-2l5-5c-0.33-1-.67-2-1-3h-10Zm885,0c-2.57,3.05-7.5,4.72-11,10,6.91-2.46,10.61-4.02,14-10h-3Zm-930,3c0.4,6.63,1.02,8.73,6,11q1.005-5.505,2-11h-8Zm1604,3c-1.67,1.33-3.33,2.67-5,4,5.14-.76,4.65-0.8,7-4h-2Zm-2245,3c-0.667.33-1.333,0.67-2,1h6C976.667,1573.67,975.333,1573.33,974,1573Zm-16,16c-1-2.67-2-5.33-3-8-7.085-.18-8.89.53-12,4Q950.5,1587,958,1589Zm2244-8v4h5v-4h-5Zm-2137,3c-1.33,1-2.67,2-4,3v1h4c1-1.33,2-2.67,3-4h-3Zm536,0q2.505,6,5,12c2.33,0.67,4.67,1.33,7,2v-5c-0.67-3-1.33-6-2-9h-10Zm1581,7c1,0.33,2,.67,3,1C3184,1591.67,3183,1591.33,3182,1591Zm-2644,2c-5.162,5.42-9.671,8.41-10,19h2c0.667,1.33,1.333,2.67,2,4h4a53.79,53.79,0,0,1,5-23h-3Zm1660,8c-6.15,2.14-10.51.17-14,5q7.995-2.505,16-5h-2Zm-1247,1c-0.333,1.33-.667,2.67-1,4,2.333-1.33,4.667-2.67,7-4h-6Zm-638,11h8c-0.333-1.33-.667-2.67-1-4-2.333-.33-4.667-0.67-7-1v5Zm1242,11c-2.33.67-4.67,1.33-7,2-1.33,2-2.67,4-4,6v1c10.92,0.53,21.97.46,27-5Q1563.005,1626.005,1555,1624Zm1621,0q-4.005,4.995-8,10h4c1-.33,2-0.67,3-1C3175.97,1628.96,3177.31,1627.77,3176,1624ZM263,1635q-6,2.505-12,5v1c8.566,1.75,15.477,3.02,17-6h-5Zm2297,7c-0.67.33-1.33,0.67-2,1,1.33,0.33,2.67.67,4,1-0.33-.67-0.67-1.33-1-2h-1Zm-1349,16v-7a25.18,25.18,0,0,0-17,8Q1202.505,1658.505,1211,1658Zm1049,3c0.67,2.33,1.33,4.67,2,7h6c-0.33-.67-0.67-1.33-1-2-0.49-3.12,1.12-.66-1-3C2263.9,1661.32,2264.02,1661.45,2260,1661Zm573,1c2.37,1.68,1.98,1.9,5,1C2836.33,1662.67,2834.67,1662.33,2833,1662Zm-1601,24q-1.005-7.995-2-16l-2,2c4.53,9.37-10.22,8.65-15,15,0.67,1,1.33,2,2,3h1Q1223.995,1688.005,1232,1686Zm1287-16h0Zm-675,7c-2,.33-4,0.67-6,1,2.07,10-4.88,9.27-13,12,1,1.33,2,2.67,3,4,10.66,4.16,18.69,4.61,31,2v-1c-10.98.59-20.58,1.22-25-5,1.33-.67,2.67-1.33,4-2,3.2,2.92,3.27,1.38,7,0C1844.67,1684.33,1844.33,1680.67,1844,1677ZM296,1691c-1,.33-2,0.67-3,1,0.333,0.67.667,1.33,1,2,3.333,0.33,6.667.67,10,1v-1Zm2329,0c-1.33.33-2.67,0.67-4,1v1h2c3,0.67,6,1.33,9,2v-1C2629.81,1692.04,2628.81,1691.72,2625,1691Zm178,9c-8.25,4.7-24.17,2.81-31,9,14.42,0.67,26.78-.29,32-9h-1Zm-220,5-4,4h15v-4h-11Zm-329,3c1.8,2.04.02,0.71,3,2C2256,1709.33,2255,1708.67,2254,1708Zm12,9c-1.67,1.33-3.33,2.67-5,4,0.33,0.67.67,1.33,1,2,4.51-.22,5.39-0.71,8-2v-3C2268.67,1717.67,2267.33,1717.33,2266,1717Zm-1010,16v3l6-3h-6Zm-18,14v4h4v-4h-4Zm655,11-3,3h6c1.33-1,2.67-2,4-3h-7Zm696,0c-1,.33-2,0.67-3,1v2h3c1-.67,2-1.33,3-2v-1h-3Zm-70,9c-4.48,1.99-6.21,1.47-9,5C2516.81,1772.4,2519.63,1771.23,2519,1767Zm-1895,3c-0.333.67-.667,1.33-1,2q-0.5,1.5-1,3c-6.719,11.13-27.683,20.98-41,25v1C599.739,1805.87,633.646,1790.81,624,1770Zm304,1c-0.333.67-.667,1.33-1,2,1.333-.67,2.667-1.33,4-2h-3Zm304,0a20.462,20.462,0,0,0-5,8c3.33-.33,6.67-0.67,10-1,0.67-2.33,1.33-4.67,2-7h-7Zm-269,3c-0.667.33-1.333,0.67-2,1,0.67,4.96,1.011,4.13,3,7h5c2-1.67,4-3.33,6-5h-2Zm691,0c1.8,2.04.02,0.71,3,2C1656,1775.33,1655,1774.67,1654,1774Zm-730,8-2,3v1c2-.33,4-0.67,6-1q0.5-1.5,1-3h-5Zm619,0c-1.33,1.67-2.67,3.33-4,5-1.75,2.19-1.75,2.69-2,7,1.67,0.33,3.33.67,5,1q2.505-6,5-12v-1h-4Zm-279,6c-0.33.67-.67,1.33-1,2,2-.33,4-0.67,6-1C1267.33,1788.67,1265.67,1788.33,1264,1788Zm522,8c-1.8,2.04-.02.71-3,2v3c5.89-3.23,8.09-1.64,17-1v-1C1797.48,1796.49,1793.9,1795.72,1786,1796Zm121,0q-3,5.505-6,11c1-.67,2-1.33,3-2C1907.06,1803.18,1910.02,1797.91,1907,1796Zm-1594,3q-3,5.505-6,11h14v-11h-8Zm124,0c0.333,1.33.667,2.67,1,4h11Q443,1801.005,437,1799Zm-100,6c-8.393,5.96-15.469,11.16-19,22,17.34-1.74,21.749-12.51,36-16-1.333-1.67-2.667-3.33-4-5Q343.5,1805.505,337,1805Zm2511,0-2,2c2.67,1,5.33,2,8,3v-4C2852,1805.67,2850,1805.33,2848,1805Zm-1877,1c1.517,2.02,2.885,2.67,5,4,2.666-1.33,5.334-2.67,8-4H971Zm611,0h0Zm125,3c-1.33,1-2.67,2-4,3-0.33,1.67-.67,3.33-1,5h4c1-.33,2-0.67,3-1,0.33-2.33.67-4.67,1-7h-3Zm-1131,4c-3.092,7.06-8.538,5.84-10,15h3c6.109-2.44,9.809-3.29,11-11C578.667,1815.67,577.333,1814.33,576,1813Zm998,3c1.87,3.42-1.48,2.59,4,4,0.33-1.33.67-2.67,1-4h-5Zm1650,8c-1,.33-2,0.67-3,1v1q6,1.005,12,2c0.33-.67.67-1.33,1-2C3230.67,1825.33,3227.33,1824.67,3224,1824Zm-1885,1,2,2Zm212,2c-13.56,8.08-14.52,12.79-21,28,10.86-4.09,24.61-11.5,25-28h-4Zm-630,3-4,3c5.692,0.93,9,2.96,13,0-0.333-.67-0.667-1.33-1-2C926.334,1830.67,923.666,1830.33,921,1830Zm-619,39q-9.5-.495-19-1c-0.333.67-.667,1.33-1,2h2c12.531,8.85,24.21-1.61,34-7-4.1-5.76-6.885-8.66-7-19,1-.67,2-1.33,3-2,2-.33,4-0.67,6-1q-3.5-3.495-7-7c-5.636,4.56-7.118,9.21-16,11C300.26,1852.25,302.153,1857.23,302,1869Zm144-35c3.049,3.26,4.522,5.89,6,11h2v-7C451.334,1836.67,448.666,1835.33,446,1834Zm1305,0v4h4v-4h-4Zm-875,6c-1.333.33-2.667,0.67-4,1v2h7c1.667-.67,3.333-1.33,5-2v-1h-8Zm781,1c-2.58,4.93-5.48,4.65-7,11h5v-2C1657.97,1847.9,1658.94,1844.98,1657,1841Zm575,3c1.33,0.33,2.67.67,4,1C2234.67,1844.67,2233.33,1844.33,2232,1844ZM661,1858c-5.142,4.36-7.982,2.77-8,13h1q6.5-6.495,13-13h-6Zm-174,8v4q-4.5,1.995-9,4c0.667,0.67,1.333,1.33,2,2q4.5-2.505,9-5v-5h-2Zm70,0c-1.667,2.33-3.333,4.67-5,7h15c-0.667-2.33-1.333-4.67-2-7h-8Zm1678,1c-0.33.67-.67,1.33-1,2,1.33,0.33,2.67.67,4,1v-1C2237,1868.33,2236,1867.67,2235,1867Zm-1989,2c-1.923,3.14-2.129,2.82-6,4l3,3c1.667-2.33,3.333-4.67,5-7h-2Zm406,3q0.5,3,1,6Q652.5,1875,652,1872Zm866,0c0.67,2,1.33,4,2,6h1c0.33-1.67.67-3.33,1-5-0.67-.33-1.33-0.67-2-1h-2Zm-572,4c-1,2.33-2,4.67-3,7,8.992,0.63,12.6.22,15-6h-2C952.667,1876.67,949.333,1876.33,946,1876Zm1842,3v4c0.67-1.33,1.33-2.67,2-4h-2Zm-2134,4c-0.333,1.33-.667,2.67-1,4h1c0.333-1.33.667-2.67,1-4h-1Zm650,3v4h4v-4h-4Zm-34,3c0.67,0.33,1.33.67,2,1C1271.33,1889.67,1270.67,1889.33,1270,1889Zm1255,2c0.02,3.06-.96,1.4,1,4v-2h3c-0.33-.67-0.67-1.33-1-2h-3Zm-1832,2c-5.278,2.41-8.276,1.95-11,7q-1,4.5-2,9c0.333,0.67.667,1.33,1,2q6-1.995,12-4v-14Zm1561,0c3.06,2.96,6.35,3.93,9,2C2260,1894.33,2257,1893.67,2254,1893Zm-763,6v4h4v-3C1493.67,1899.67,1492.33,1899.33,1491,1899Zm-565,3c0.667,0.33,1.333.67,2,1C927.333,1902.67,926.667,1902.33,926,1902Zm11,2,2,3C937.741,1903.98,939.018,1905.8,937,1904Zm-18,1c-1,.67-2,1.33-3,2q1,4.5,2,9c-1.333.33-2.667,0.67-4,1-5.085-4.05-17.627-11.35-21,0-0.667.33-1.333,0.67-2,1,16.235,1.86,20.528,9.12,36,4v-4C924.028,1914.31,920.911,1907.33,919,1905Zm-205,2c-1.667,1.33-3.333,2.67-5,4v1q6,0.495,12,1v-2c0.333-1.33.667-2.67,1-4h-8Zm1797,0c-1.87,3.56-2.79,6.2-3,12h1v-2c4.41-3.28,4.52-6.25,6-10h-4Zm-2296,1q-4,4.995-8,10h5l10-6-1-3C219,1908.67,217,1908.33,215,1908Zm2932,5c-3,.67-6,1.33-9,2-2.66,2.17-2.8,2.01-4,6C3137.16,1920.09,3149.64,1914.02,3147,1913Zm-242,4c1,0.33,2,.67,3,1C2907,1917.67,2906,1917.33,2905,1917Zm-1658,10c1.33,0.33,2.67.67,4,1C1249.67,1927.67,1248.33,1927.33,1247,1927Zm307,0c0.67,0.33,1.33.67,2,1C1555.33,1927.67,1554.67,1927.33,1554,1927Zm1403,3c-4.9,5-9.88,5.81-13,13v1h1C2947.53,1942.35,2959.22,1931.65,2957,1930Zm-750,2c-1.67,1.33-3.33,2.67-5,4l2,2c1-.33,2-0.67,3-1C2208.02,1933.27,2208.98,1934.1,2207,1932Zm364,0v9h5v-1l-2-2C2573.23,1933.58,2573.4,1934.29,2571,1932Zm-435,2c0.67,0.33,1.33.67,2,1C2137.33,1934.67,2136.67,1934.33,2136,1934Zm-170,16c2.33-.67,4.67-1.33,7-2,1.33-2.67,2.67-5.33,4-8l-11-3v13Zm-29-3,3,3c1.67-.67,3.33-1.33,5-2v-1h-8Zm380,13c-7.36,3.31-12.87,3.88-18,9h6c5.58-2.25,10.48-4.7,14-9h-2Zm195,1c-0.33.67-.67,1.33-1,2,1.67-.33,3.33-0.67,5-1C2514.67,1961.67,2513.33,1961.33,2512,1961Zm-1572,4q-0.5,1.5-1,3v1c7.4,0.05,10.045-1.36,15-3v-1H940Zm-266,3c1.8,2.04.015,0.71,3,2C676,1969.33,675,1968.67,674,1968Zm2281,2c-0.33.67-.67,1.33-1,2h10c-0.33-.67-0.67-1.33-1-2h-8Zm-1384,10c2-.33,4-0.67,6-1-0.45-2.39-.04-1.25-2-4h-4v5Zm-904-4c-0.333,1.33-.667,2.67-1,4h5c-0.333-.67-0.667-1.33-1-2,0.333-.67.667-1.33,1-2h-4Zm1798,3c0.67,0.33,1.33.67,2,1C2466.33,1979.67,2465.67,1979.33,2465,1979Zm-88,2c-4.44,6.27-12.16,5.97-16,13,0.67,0.33,1.33.67,2,1,0.33,0.67.67,1.33,1,2,1.33-.67,2.67-1.33,4-2l8-8C2376.33,1985,2376.67,1983,2377,1981Zm53,6-3,3c4.92,0.14,7.57-.06,10-2C2434.67,1987.67,2432.33,1987.33,2430,1987ZM655,2004l-2,3q6.5,1.995,13,4c-1-1.67-2-3.33-3-5C660.334,2005.33,657.666,2004.67,655,2004Zm94,3a24.541,24.541,0,0,1-1,14q7.5-.495,15-1h-2c-3.635-4.55-1.722-2.94-8-2C753.133,2012.14,752.916,2009.07,749,2007Zm528,0c0.91,3.65-.04,2.04,2,4C1278.33,2009.67,1277.67,2008.33,1277,2007Zm758,0c1.48,4.63,1.11,10.59-1,14q7.5-.495,15-1h-2c-3.26-3.98-4.84-.39-8-5-1-2.67-2-5.33-3-8h-1Zm177,0c1.33,0.33,2.67.67,4,1C2214.67,2007.67,2213.33,2007.33,2212,2007ZM746,2020l-1-10-7,3C739.183,2018.55,739.833,2019.33,746,2020Zm1287,0c-0.33-3.33-.67-6.67-1-10-2.67,1-5.33,2-8,3,0.67,2.33,1.33,4.67,2,7h7Zm-822,4c0.67,0.33,1.33.67,2,1C1212.33,2024.67,1211.67,2024.33,1211,2024Zm221,0v6c8.44,0.1,10.83-1.75,16-4v-2h-16Zm28,4v4h4v-4h-4Zm835,3v4h5v-4h-5Zm-2116,8v-7h-4c-1.333,2.33-2.667,4.67-4,7h8Zm1336-1c1.33,0.33,2.67.67,4,1C1517.67,2038.67,1516.33,2038.33,1515,2038Zm-366,7h0Zm1860,0c1,0.33,2,.67,3,1C3011,2045.67,3010,2045.33,3009,2045Zm-725,11v4h5c-0.33-1.33-.67-2.67-1-4h-4ZM200,2163H327q-2,4.005-4,8c-83.774-1.05-178.068-8.99-218,35-16.163,17.81-16.192,38.59-9,65q1.5,10.005,3,20c13.275,23.84,13.456,52.12,23,82,16.172,50.63,25.232,104.9,49,150,7.6,14.42,9.192,32.94,20,44-18.839-49.18-33.815-98.58-52-150-10.163-28.73-6.85-59.88-17-90-7.419-22.01-18.977-45.07-20-72l35,12c-2.943-7.6-4.729-14.63-12-18-9.539-5.6-16.118,2.24-23,5-8.518-60.75,35.093-60.4,78-74q20.5-.495,41-1c21.566-6.09,64.519-4,88-1,26.456,3.38,69.54-8.42,91,1h28q37,1.995,74,4,54.5,1.995,109,4c7.282,1.42,37.639-1.11,37-2h2q-51.995-1.995-104-4c-65.788-11.07-143.583-9.98-213-10,6.077-13.16,61.764-10.1,80-7l58,3c65.265,11.92,140.871,8.59,216,9-0.667,1.67-1.333,3.33-2,5,44.114-12.9,112.525-6,166-6q87.491,0.495,175,1,20.505,0.495,41,1l88,3,136,3c16.04,0,38.4-2.21,51,2h221q342.96-3.495,686-7c3.33-.22,2.3-0.93,5,1l-6,6h5c53.86-24.48,191.1-5,260-5q170.985,4.995,342,10c52.63,8.49,107.6-1.19,155,7,53.19,9.19,104.68.4,153,10q24.495,1.995,49,4c-10,14.01-64.72,17.49-88,20q-18.495.495-37,1c49.99-.67,112.59-9.89,134,20,16.92-22.67,41.73,27.89,44,40,3.81,20.26,2.02,64.58-3,82q-0.495,21.495-1,43c-7.43,30.51-1.64,68.22-12,96-40.79,109.38-122.87,186.28-227,233-63.97,28.7-142.89,35-235,35q-36-.495-72-1-150.48-.495-301-1-109.485-.495-219-1,253.98,1.995,508,4c87.69,3.85,196.4,8.64,264-13,70.22-22.47,134.22-49.24,181-95,10.09-9.87,54.79-68.48,63-70-42.62,80.72-116.26,138.32-204,174-36.07,14.67-77.41,19.11-119,28H2561q-109.485-1.005-219-2c-12.72-2.03-48,5.89-54-3,1.33-1,2.67-2,4-3a74.928,74.928,0,0,0-25,0l-3,6q-114.99-.495-230-1c-23.97,0-80.25,5.96-98-2,0.33-3.67.67-7.33,1-11q-286.965.495-574,1-139.98-.495-280-1l-393-3q-62.994-.495-126-1-33-4.005-66-8c-60.341-15.33-116.931-28.57-163-57-17.323-10.69-65.032-31.88-71-50,4.313-.21,4.827-0.26,7-2v-1c-17.915-.01-17.791-7.93-28-14,15.121,20.37,34.449,40.12,55,55q21.5,12.495,43,25v6c-29.348-7.04-57.9-33.67-79-51-64.945-53.36-117.536-122.74-142-217q1-7.005,2-14-1-36.99-2-74c-7.4-31.19-52.154-131.33-35-163,17.166-31.69,40.762-41.78,78-54Q181.5,2165.005,200,2163Zm72,28c-0.333-2.67-.667-5.33-1-8-1.333-.67-2.667-1.33-4-2-0.838,4.88-1.1,4.6-4,7,1,0.67,2,1.33,3,2C268,2190.33,270,2190.67,272,2191Zm1966,1c-2.33,1-4.67,2-7,3,2.33,0.67,4.67,1.33,7,2,0.33-1.33.67-2.67,1-4Zm-131,1c-0.67.33-1.33,0.67-2,1,1.67,0.33,3.33.67,5,1-0.67-.33-1.33-0.67-2-1Zm-37,1c-0.33,1.33-.67,2.67-1,4h5C2072.24,2194.82,2075.11,2195.6,2070,2194Zm138,0c-1,1.33-2,2.67-3,4l9-3v-1h-6Zm-426,2q-4.005,4.5-8,9,9-.495,18-1c1.67-2.33,3.33-4.67,5-7h-2Q1788.505,2196.505,1782,2196Zm-966,3,2,3v-3h-2Zm-557,16c5.517-.04,5.787.28,8-3q0.5-5.505,1-11l-28,3v22c12.732,0.02,26.218,1.3,34,6C269.563,2224.96,260.862,2224.57,259,2215Zm291-13c-1.667,1.67-3.333,3.33-5,5v1h6q7.5-2.505,15-5Q558,2202.505,550,2202Zm241,2c0.333,2.67.667,5.33,1,8,1.987,2.65,1.127,1.96,5,3v-6q-0.5-1.5-1-3C794.333,2205.33,792.667,2204.67,791,2204Zm1807,5c-0.33,1.33-.67,2.67-1,4v1h4c1-1.33,2-2.67,3-4h-2C2600.67,2209.67,2599.33,2209.33,2598,2209Zm-2378,9q-6.5,1.995-13,4-0.5,1.5-1,3v1h14v-8Zm2266,1-3,3h11v-3h-8Zm-447,3c-1,1.33-2,2.67-3,4l6-3v-1h-3Zm-336,3c1,0.33,2,.67,3,1C1705,2225.67,1704,2225.33,1703,2225Zm378,0c2.33,1.33,4.67,2.67,7,4,0.67-1,1.33-2,2-3-0.67.33-1.33,0.67-2,1C2085.92,2224.88,2085.41,2225.16,2081,2225Zm-953,3c1.8,2.04.02,0.71,3,2C1130,2229.33,1129,2228.67,1128,2228Zm1564,1c-4.86,3.95-8.65,4.3-12,10,5.79-1.09,9.89-2.99,12-8l2-2h-2Zm-962,2c-2,.33-4,0.67-6,1l-7,7c0.42,7.16,1.76,7.92,7,11-1.68-9.05,5.41-12.38,10-18C1732.67,2231.67,1731.33,2231.33,1730,2231Zm-190,1c1,0.33,2,.67,3,1C1542,2232.67,1541,2232.33,1540,2232Zm-1326,7c1.333,0.33,2.667.67,4,1C216.667,2239.67,215.333,2239.33,214,2239Zm283,18c0.333-1.67.667-3.33,1-5,3.5-5.42,9.463-6.46,13-12v-1h-8c0.518,4.24,2.837,2.99-2,6-8.12,5.77-17.128,2.61-22,12h18Zm1187-18c-0.67.33-1.33,0.67-2,1,0.33,0.67.67,1.33,1,2,2.67-.67,5.33-1.33,8-2v-1h-7Zm461,7v4c1.67,0.33,3.33.67,5,1,1.33-.67,2.67-1.33,4-2Zm341,0c0.67,0.33,1.33.67,2,1C2487.33,2246.67,2486.67,2246.33,2486,2246Zm-1469,10c0.67,0.33,1.33.67,2,1C1018.33,2256.67,1017.67,2256.33,1017,2256Zm1407,0c0.67,0.33,1.33.67,2,1C2425.33,2256.67,2424.67,2256.33,2424,2256Zm-843,4c0.33,0.67.67,1.33,1,2-5.71.94-4.29,2.23-7,6q6.495-1.995,13-4v-4h-7Zm-45,7v4h5c-0.33-1.33-.67-2.67-1-4h-4Zm303,3c2.29,1.52,1.21,1.83,4,1C1841.67,2270.67,1840.33,2270.33,1839,2270Zm-822,7v5h1c5.06-1.07,6.42-1.62,9-5h-10Zm1188,7c0.67,0.33,1.33.67,2,1C2206.33,2284.67,2205.67,2284.33,2205,2284Zm-1541,1-5,3c0.333,0.67.667,1.33,1,2h9c0.333-1.33.667-2.67,1-4C668,2285.67,666,2285.33,664,2285Zm1162,1v3c1.33-1,2.67-2,4-3h-4Zm-259,2c-1.39,4.58-2.28,5.66-7,7-5.62,6.5-72.46,4-91,4q-135.99.495-272,1,328.965,1.005,658,2-68.49-.495-137-1c1.64-4.34,3.37-4.04,6-7v-3h-5q-4.995,1.995-10,4c1,1.33,2,2.67,3,4-0.33.67-.67,1.33-1,2q-54-.495-108-1c-10.26,0-33.75,2.42-38-4,4.61-1.55,3.75-1.18,5-6C1569,2289.33,1568,2288.67,1567,2288ZM258,2298c1,0.33,2,.67,3,1C260,2298.67,259,2298.33,258,2298Zm419,0c1,0.33,2,.67,3,1C679,2298.67,678,2298.33,677,2298Zm266,0c0.667,1.33,1.333,2.67,2,4,5.769,0.8,9.294,1.36,13-2v-1Q950.5,2298.505,943,2298Zm1362,0c2.71,7.33,1.85,8.4,13,8q2.505-4.005,5-8h-18Zm609,0c-0.33.67-.67,1.33-1,2,1.33,0.67,2.67,1.33,4,2v-4h-3Zm-1846,1c0.83,5.51-1.89,7.45-3,14,6.84-1.52,7-3.89,10-9v-5h-7Zm62,0h0Zm1256,2c-0.33.67-.67,1.33-1,2,2.9-.53,4.9.79,3-2h-2Zm-1484,1c-5.384,2.69-13.08,1.9-17,6v1h1c6.982-2.12,16.129-1.47,20-7h-4Zm2086,0c-0.33,1.33-.67,2.67-1,4h6c-0.33-.67-0.67-1.33-1-2,0.33-.67.67-1.33,1-2h-5Zm-1017,1h0Zm244,3v7c3.15-2.27,4.7-5.95,6-10-7.27,3.21-22.82-.19-31,3h25Zm-136-2h0Zm-390,1-4,4c6.86,0.68,10.17,2.31,12-4h-8Zm533,0h0Zm-19,27v-12q-235.47,1.005-471,2H1586c-25.2,0-55.02,2.19-77-2,0.67-1.33,1.33-2.67,2-4h-16c1.13,3.77,2.16,1.03,0,4q-96.99-.495-194-1c-12.5-2.03-56.31,4.05-61-3,0.67-.33,1.33-0.67,2-1-53.96,10.94-125.73,3.08-186,3-0.24-4.47,1.08-2.27-1-5-6.33,9.02-34.36,5-49,5q-69.993-.495-140-1-136.486-1.005-273-2c-25.615,0-102.3-4.31-114,0q-87.991.495-176,1c0.446,29.71,14.273,41.16,22,68q10,60.99,20,122c3.935,15.01,24.716,45.28,23,51,15.124,3.11,23.423,18.03,36,25,36.315,20.13,80.387,28.86,129,41,39.073,9.76,95.751,3,141,3H806q36-1.005,72-2,366.96-.495,734-1c-0.33,2-.67,4-1,6h4v-6h369l139,6h56c48.81,8.02,95.32-4.82,143,3q116.49,1.995,233,4,107.49,0.495,215,1c70.88,0,138.96,5.71,185-23,47.38-29.54,79.72-72.53,102-124,14.77-34.13,10.1-74.65,23-112,8.34-24.15,16.87-41.99,18-66q-30-.495-60-1v-3c0.67-1,1.33-2,2-3-19.43,8.71-88.3,10.43-116,5q-49.5-.495-99-1c-62.2,0-109.96-4.49-165,0H2521l279,3q53.49,1.005,107,2c10.75,2.97,31.54-2.53,42,1h29c30.92,0,50.6,1,76,1q18.495,1.005,37,2c0.36,17.96-8.61,25.96-13,39q-9.495,51.495-19,103c1.36,8.61-7.53,31.86-14,34v-3c15.42-32.8,27.93-103.32,28-154-48.34,7.56-106.11,0-156,0q-60.495-.495-121-1H2608q-81.99-1.005-164-2C2360.68,2334,2292.77,2331.95,2203,2332Zm134-26q83.49,0.495,167,1Q2420.51,2306.505,2337,2306ZM313,2477c1.333,0.33,2.667.67,4,1C315.667,2477.67,314.333,2477.33,313,2477Zm2820,14q4.5,1.995,9,4v-4h-9ZM202,2559c-1,.67-2,1.33-3,2,0.333,0.67.667,1.33,1,2h4C203.088,2559.35,204.038,2560.96,202,2559Zm2987,2c-3.25,2.32-4.26,1.81-6,6h10c2.33-1.67,4.67-3.33,7-5C3196.33,2561.67,3192.67,2561.33,3189,2561Zm-2998,7c0.667,1.33,1.333,2.67,2,4C192.333,2570.67,191.667,2569.33,191,2568Zm61,5c-0.333.67-.667,1.33-1,2h3c-0.333-.67-0.667-1.33-1-2h-1Zm-55,8v0Zm4,8c1,1.33,2,2.67,3,4C203,2591.67,202,2590.33,201,2589Zm31,5c-1.667,1.67-3.333,3.33-5,5,4.425-1.38,5.275-.46,7-5h-2Zm-28,1c0.667,0.67,1.333,1.33,2,2C205.333,2596.33,204.667,2595.67,204,2595Zm2826,3h0Zm-2822,4c0.667,0.67,1.333,1.33,2,2C209.333,2603.33,208.667,2602.67,208,2602Zm1596,27a26.453,26.453,0,0,0-5,8c5.54,0.09,7.58-.12,10-3,0.67-1.67,1.33-3.33,2-5h-7Zm-1578,2c0.667,0.67,1.333,1.33,2,2C227.333,2632.33,226.667,2631.67,226,2631Zm2,3c0.667,0.67,1.333,1.33,2,2C229.333,2635.33,228.667,2634.67,228,2634Zm830,10,11-3v-5q-5.505-1.005-11-2v10Zm1312-8c-1,1.33-2,2.67-3,4h3c1.67-1,3.33-2,5-3v-1h-5Zm-2137,5c0.667,0.67,1.333,1.33,2,2C234.333,2642.33,233.667,2641.67,233,2641Zm1669,1c-3.28,7.96-14.34,15.6-22,19,0.67,0.33,1.33.67,2,1l9,9C1893.83,2662.59,1905.75,2651.8,1902,2642Zm-1667,2,3,3Zm757,3v4h4v-4h-4Zm-752,3,3,3Zm1775,1c0.55,4.97-.19,3.87,3,6,3.6,0.89,8.9-1.4,12-4C2023.56,2653.64,2021.16,2652.24,2015,2651Zm-168,2-6,15h6c5.12-2.1,7.99-3.86,11-8-1-2.33-2-4.67-3-7h-8Zm-612,4h0Zm1181,3c-7.5,3.63-11.68,4.3-16,11q11.505-4.995,23-10v-1h-7Zm19,1c5.42,3.85,17.63,9.77,25,5v-1Q2447.505,2663.005,2435,2661Zm-1911,3v4h8v-1l-2-3h-6Zm509,4q-1.5,4.995-3,10h1c0.33-.67.67-1.33,1-2C1034.79,2672.93,1035.37,2671.21,1033,2668Zm-616,3c1.333,0.33,2.667.67,4,1C419.667,2671.67,418.333,2671.33,417,2671Zm900,0q-4.005,6.495-8,13c5.6-1.37,8.86-3.3,12-7v-4C1319.67,2672.33,1318.33,2671.67,1317,2671Zm503,0v11c2.33-1.67,4.67-3.33,7-5-0.33-1.67-.67-3.33-1-5C1824,2671.67,1822,2671.33,1820,2671Zm164,0-7,7v1h5c4.49-1.43,6.38-1.86,9-5v-1C1988.67,2672.33,1986.33,2671.67,1984,2671Zm278,1c-3.75,3.59-10.87,3.72-15,7h5c5.72-1.49,9.03-1.45,11-7h-1Zm-1279,7c-0.034,11.09-4.04,12.58-7,20h1c0.667-.67,1.333-1.33,2-2,5.13-3.11,7.363-10.55,5-18h-1Zm585,3c-5.32,2.3-10.45,2.06-14,6v1h5c6.03-2.19,12.99-2.82,17-7h-8Zm648,2c-2.33,1.33-4.67,2.67-7,4q-2.505,4.005-5,8c6.63-1.39,14.28-2.97,19-6v-1C2221.06,2685.25,2220.39,2685.25,2216,2684Zm-488,1c-0.67,1.33-1.33,2.67-2,4,2.33-1.33,4.67-2.67,7-4h-5Zm-335,4q-3.495,4.005-7,8c1.33,0.67,2.67,1.33,4,2q3-4.005,6-8c-0.33-.67-0.67-1.33-1-2h-2Zm229,3v6c1,0.67,2,1.33,3,2h5v-8h-8Zm99,4c-1,.67-2,1.33-3,2v2h3c0.67-1.33,1.33-2.67,2-4h-2Zm-476,3v4h4v-4h-4Zm551,17v3h8c-0.67-1-1.33-2-2-3h-6Zm575,0c-0.76,7.41-3.13,7.24-7,11h4c1-.67,2-1.33,3-2h2C2373.58,2719.82,2374.09,2719.22,2371,2716Zm-712,1-4,4h3C1658.33,2719.67,1658.67,2718.33,1659,2717Zm193,0c-0.74,3.71-.47,3.89,1,7h7c2-1.67,4-3.33,6-5h-6C1857.88,2716.84,1856.56,2717.01,1852,2717Zm-879,1c-0.333.33-.667,0.67-1,1,1,0.67,2,1.33,3,2Zm431,5c-7.11,2.87-11.69,2.6-16,8,2,0.33,4,.67,6,1v-1h-2c0.33-1.33.67-2.67,1-4,8.16,0.61,17.34,1.51,20-4h-9Zm-1042,3c1.8,2.04.015,0.71,3,2C364,2727.33,363,2726.67,362,2726Zm1698,0-5,5c0.64,3.63.4,3.03,2,5v-2q5.505-2.505,11-5v-3h-8Zm-237,2c-1,1.33-2,2.67-3,4,6.61,1.63,9.66,2.13,14-3h-2C1829,2728.67,1826,2728.33,1823,2728Zm60,9h0Zm-496,3c1,0.33,2,.67,3,1C1389,2740.67,1388,2740.33,1387,2740Zm118,0c1.33,0.67,2.67,1.33,4,2C1507.67,2741.33,1506.33,2740.67,1505,2740Zm539,0q-3.495,3-7,6c4.15-1.34,9.26-2.18,12-5v-1h-5Zm-529,4c2.38,2.94,2.45,2.94,8,3-0.67-1-1.33-2-2-3h-6Zm133,0h0Zm-236,3c0.67,0.33,1.33.67,2,1C1413.33,2747.67,1412.67,2747.33,1412,2747Zm-648,11-7,3v1q8.5-.495,17-1v-1Q769,2759,764,2758Zm1767,10c-0.33,1.67-.67,3.33-1,5h4c2.33-1.33,4.67-2.67,7-4v-1h-10Zm-1895,1h0Zm60,0,505,3c0.43,2.6-.98.55,1,3,3.22-8.2,38.75-4,50-4q61.995,0.495,124,1c11.83,0,38.44-3.82,46,2,0.34,3.04,0,3.34,3,6,7.56-1.23,6.62-4.97,11-7q55.5-.495,111-1Zm1128,3c-0.33.67-.67,1.33-1,2h5C1826.67,2773.33,1825.33,2772.67,1824,2772Zm-162,1h0Zm250,2h0Zm720,0c-0.33,1-.67,2-1,3l2-2Zm-598,1h0Zm38,0h0Zm196,10c5.22-.42,3.98.66,6-3-0.67-.33-1.33-0.67-2-1-1.33-.33-2.67-0.67-4-1v5Zm508,9c-2,1.67-4,3.33-6,5C2774.06,2798.35,2775.37,2797.06,2776,2795Zm-311,180c84.32-1.44,125.69,69.17,108,159q-1.005,27-2,54-0.495,19.995-1,40c-11.9,69.51,1.48,96.17-46,132-16.76,12.65-44.01,24.04-79,18-31.37-5.41-65.93-21.11-77-37-14.16-20.33-22.25-73.17-16-110,3.98-23.45,4.65-58.84-1-79q1.005-21,2-42,1.005-22.5,2-45c3.01-16.62,12.15-36.89,20-51,6.55-11.77,54.34-33.33,70-38C2450.14,2974.47,2458.45,2978.18,2465,2975ZM143,2986c114.408-2.47,130.388,86,88,166,51.6,7.69,76.944,88.05,54,145-21.147,52.49-67.365,69.22-131,83-18.52,4.01-90.776,16.98-104-4,2,0.67,4,1.33,6,2-1.333-1.33-2.667-2.67-4-4,2.666-.67,5.334-1.33,8-2-2.2-1.11-4.394-1.31-6-3,3-.33,6-0.67,9-1l-6-3h3c-2-.33-4-0.67-6-1,1-.33,2-0.67,3-1,1.782-3.58-.531-1.18,3-3v-1c-1.333-.67-2.667-1.33-4-2,3.719-2.81,2.168-5.49,1-14-3,.67-6,1.33-9,2v-3c5.614-.56,5.567,0,7-5l-5-6c5.941-.48,4.715-0.2,7-4H53c2.582-5.06,2.045-70.92,0-93a619.491,619.491,0,0,0-11-70c-5.888-28.06-.172-67.54,3-92,0.765-5.9-4.316-31.56-3-33,3.169-3.47,3.435-23.13,3-26,10.983-3.31,20.857-11.68,34-15Zm1207,3c57.55-.97,102.06,16.7,113,62q0.495,21.495,1,43c1.54,10.14,7.91,27.03,4,37q-1.5-8.505-3-17c0.8,26.69-29.44,36.81-56,29v-1c1-.67,2-1.33,3-2-4.65-2.57-3.62-4.32-11-5,0.33-.67.67-1.33,1-2,2.41-1.44,10.37-53.78,2-70-14.41-27.94-79.4-10.15-91,7-11.34,16.76-1,77.15-1,105,0,31.81-9.1,103.86,4,124,4.97,7.65,17.44,9.81,27,13,8.06,2.69,25.36,7.23,35,2,11.91-6.47,18.59-19.9,25-25q7.005-.495,14-1c2.79,13.01,33.62,14.65,34,32-16.03,53.69-56.76,63.83-112,55-12.91-2.06-28.42-2.02-41-9-13.27-7.36-19.6-18.19-30-28-3.04,2.65-2.52,1.5-6,0-8.91-23.26-21.35-63.27-15-101l3-54c-2.27-13.58-6.25-62.59-3-70,3.53-8.04-3.03-16.6-4-20-2.72-9.57,10.52-46.96,14-52,8.06-11.68,30.32-37.78,45-43C1314.57,2993.53,1334.45,2995.72,1350,2989Zm1432,1q4.005,3,8,6c0.43-2.6-.98-0.55,1-3,1.67,0.33,3.33.67,5,1,10.68,9.09,21.57,47.28,28,62q13.005,29.49,26,59c15.19,25.01,35.56,49.78,46,79h1q4.005-28.5,8-57c8-47.35,5.24-102.99,5-137,4.53-1.92,3.61-.65,3-5,15.43,0.32,36.13.83,54,5,2.87,5.9,6.54,14.68,8,22,0.88,4.39-5.18,27.81-7,37-4.06,20.48,1.78,42.87-2,62q-3.495,48.495-7,97,1.5,21.495,3,43c-2.79,16.48-9.53,47.82-5,64,2.6,9.28,10.5,14.93,11,28h-1c-2.33-.33-4.67-0.67-7-1,0.46,5.68,1.32,5.28,3,9q-4.995-2.505-10-5c-0.64,2.18-.66,6.35-3,4-1,.33-2,0.67-3,1-0.4-3.8,1.12-1.24-1-4-0.97,4.68-3.19,7.82-6,8-15.09,7.61-28.35,1.87-39-6,2-1.67,4-3.33,6-5-21.3-55.96-50.02-113.07-79-162-10.98-18.55-15.4-42.42-31-58v88c3.17,20.28,4.37,48.06,1,69-3.25,20.21,5.34,33.49,1,50,3.52,1.15,4.1,1.31,6,4h-6c0.43,4.21,1.34,18.64-2,22-3.23-1.66-2.23-1.4-7-1v1c1,0.67,2,1.33,3,2a50.329,50.329,0,0,0-6,9c-5.49-1.63-5.96,1.46-12,4-3.47-13.34-31.86-4.7-35-5-1.76-7.36-5.16-5.08,0-10,0.33-.67.67-1.33,1-2-10.32-15.74-4-77.04-4-110q-1.995-128.49-4-257l13-3c-1.97-1.15-3.51-1.35-5-3C2753.63,2992.31,2778.12,2993.33,2782,2990Zm-381,1h2C2401.25,2991.98,2402.78,2991.91,2401,2991ZM711,3364H699c-1.039,11.51-32.467,8.1-42,9v-5h-7c7.78-14.25-9.539-43.51-18-57-20.73-6.28-93.224-15.84-116-4-3,15.91-3.259,23.36-6,31,4.313,0.75,6.083.5,8,4-2.333.33-4.667,0.67-7,1,2.512,3.68,1.821,2.47,0,8-1.666-.33-3.334-0.67-5-1v4c4.511,0.68,3.872.24,6,3-2,.33-4,0.67-6,1,1.192,0.76,1.229-.4,1,1-1.984,1.6-1.389,1.3-5,2,1.333,0.67,2.667,1.33,4,2-3.123,13.93-71.819,18.19-63-5-1.666-.33-3.334-0.67-5-1q3-3.495,6-7h-3c2.241-5.3,5.884-24.93,7-37-1.666-.33-3.334-0.67-5-1,7.486-7.29,12.187-11.51,15-24v-13c2.874-6.71,10.069-21.02,12-30,0.576-2.68-3-5-3-5,14.4-14.1,7.6-32.76,16-52,12.96-29.67,24.953-59.74,36-95,9.648-30.8,9.266-57.26,20-86,1,1.33,2,2.67,3,4,0.865-5,3.1-7.18,6-10,18.069,2.35,51.286-6.74,54-6,13.62,91.4,54.734,182.47,81,267C695.94,3303.64,711.164,3318.55,711,3364Zm174-371c13.515,5.32,27.8,2,50,2,45.113-.01,91.45.94,120,18,49.79,29.75,50.75,118.98,3,150-8.24,5.36-27.44,10.18-40,13v2c2,0.33,4,.67,6,1-1.33,1-2.67,2-4,3,15.36,45.68,40.48,86.03,56,135,5.47,17.26,19.52,31.21,22,48-0.33.67-.67,1.33-1,2-3.88,1.17-5.07.51-7,4h3c-0.67.33-1.33,0.67-2,1-13.48,10.31-50.56,1.5-64-2,3.24-15.3-12.05-35.42-20-51-3.39-6.65-9.924-27.05-7-29-5.306-5.22-20.172-47.98-29-65-5.969-11.51-15.02-42.88-30-44-2.472,2.58-5.389,2.11-9,1-0.162,39.34,1.972,84.5-5,120-2.078,10.58-1.436,33.91,1,36,2.333,0.67,4.667,1.33,7,2v1c-2.666.33-5.334,0.67-8,1v2h7c-0.333.67-.667,1.33-1,2-2.333,1.33-4.667,2.67-7,4v1l8,3c-1.235,7.33-2.64,2.21,0,8H923c2.333,0.67,4.667,1.33,7,2-2.854,2.89-5.548,6.92-6,11-19.8.58-42.532,6.65-59,0-0.9-.37-5.605-2.98-2-3-1.553-2.87-1.749-2.32-1-6l7-3c-2-.33-4-0.67-6-1v-6c1.333-.33,2.667-0.67,4-1l-7-3q4-87.99,8-176c0.333,2.67.667,5.33,1,8v-23h-1q-0.5,1.5-1,3-0.5-24-1-48c0.667,0.33,1.333.67,2,1v5h1v-5c-4.26-8.11-4.5-32.86-2-44h-1l-2,3c0.361-15.88,3.712-47.32,5-48-0.67-4.16,3.329-11.32,0-19v2c-0.667-.33-1.333-0.67-2-1q0.5-1.5,1-3c6.132-4.06,12.839-3.53,22-9C885.5,2996.61,886.4,2997.48,885,2993Zm2509,371h-12c-1.04,11.51-32.47,8.1-42,9v-5h-7c7.78-14.25-9.54-43.51-18-57-20.73-6.28-93.22-15.84-116-4-3,15.91-3.26,23.36-6,31,4.31,0.75,6.08.5,8,4-2.33.33-4.67,0.67-7,1,2.51,3.68,1.82,2.47,0,8-1.67-.33-3.33-0.67-5-1v4c4.51,0.68,3.87.24,6,3-2,.33-4,0.67-6,1,1.19,0.76,1.23-.4,1,1-1.98,1.6-1.39,1.3-5,2,1.33,0.67,2.67,1.33,4,2-3.12,13.93-71.82,18.19-63-5-1.67-.33-3.33-0.67-5-1q3-3.495,6-7h-3c2.24-5.3,5.88-24.93,7-37-1.67-.33-3.33-0.67-5-1,7.49-7.29,12.19-11.51,15-24v-13c2.87-6.71,10.07-21.02,12-30,0.58-2.68-3-5-3-5,14.4-14.1,7.6-32.76,16-52,12.96-29.67,24.95-59.74,36-95,9.65-30.8,9.27-57.26,20-86,1,1.33,2,2.67,3,4,0.87-5,3.1-7.18,6-10,18.07,2.35,51.29-6.74,54-6,13.62,91.4,54.73,182.47,81,267C3378.94,3303.64,3394.16,3318.55,3394,3364ZM894,2994c0.333,0.67.667,1.33,1,2C894.667,2995.33,894.333,2994.67,894,2994Zm1103,6c16.9,1.25,28.54,1.41,41,0-2,2.89-2.25,2.06-3,7h1c2.73-4.94,4.02-2.03,5-7h4c0.69,9.67,4.96,19.69,11,25-8.83,11.04-5,45.74-5,64q-1.005,75.495-2,151c0,13.84-3.42,62.36,3,67q13.5,1.005,27,2c39.6,0.02,101.38-14.02,123,7h-2c-4.78,2-3.35-1.89-7,2h3q-2.505,6-5,12,5.505,1.005,11,2h-2c-5.91,2.43-9.16,1.36-12,7-1.79,7.05.03,15.07,0,19,2.33,0.33,4.67.67,7,1-0.33,1-.67,2-1,3-10.49-1.38-14.66,2.88-24,2-3.39,3.56-5.23,7.28-7,10h-1c-0.67-3-1.33-6-2-9-15-.01-93.88,2.74-95,4-17.55-9.37-54.53.49-66,3,2.55-4.98,1.06-3.44,1-8-6.24-.01-6.78.37-8-5,7.9-5.62-8.8-64.52-4-90,2.18-11.59,5.77-25.02,3-40q-1.995-7.995-4-16,3-41.49,6-83-1.005-9.495-2-19c1.66-12.34,3.37-29.97,1-43q0.495-18.495,1-37c-1.54-7-4.89-13.4-5-24,1.33,1,2.67,2,4,3,0.33,2,.67,4,1,6C1993.27,3007.6,1995.63,3006.84,1997,3000Zm6,1c1.33,0.67,2.67,1.33,4,2C2005.67,3002.33,2004.33,3001.67,2003,3001Zm909,0v4h2c0.33-1,.67-2,1-3v-1h-3Zm-1166,2c19.3,0.2,52.19,3.09,57,0,0.75,4.17-1.17,3.77,3,3,11.66,2.94,28.47,2.42,37,9-6.03-1.12-9.03-.72-12,2,6.02,3.94,3.48,11.31,8,17-4.71.17-2.98-1.17-5,1-2.67,2.52-2.95,12.18-1,16,0.33-3.67.67-7.33,1-11l3,21c-10.76,1.17-15.96,3.51-26,9-2.4-7.83-25.35-5.99-35-6-14.89-.02-87.02,3.51-89,6-10.06,19.61,1,93.07,0,112,13.25-.17,57.85-2.21,62,2q4.5,2.505,9,5v16c1.67-1.33,3.33-2.67,5-4q-1.5,16.995-3,34c-6.61,3.3-6.25,7.51-15,7-2.17-3.53-51.17-2.43-59,0-2.09,22.38-6.94,44.88-5,67h3c26.9,8.11,75.95,5,111,5-0.67-1-1.33-2-2-3,8.64,4.07,16.14,6.79,28,6l-4,4c3.19,2.57,3.16,30.77,1,45-4.83,1.23-8.29,2.29-10,7-9.91-4.92-35.39-3.15-53-1-24.29,2.96-61.91-1.01-87-1h-38c-3.37-1.52-7.11-4.85-10-7l3-3c-3.81-.66-4.84-1.05-7-3,0.94-1.13,4.33-34.65,3-38-0.6-1.51-4.25-.43-3-5,7.88-28.76,10.56-77.54,7-112q1.995-30,4-60v-69c1.84-9.48-2.19-14.35-4-16,0,0,4.87-34.15,7-41h-6c0.67-.33,1.33-0.67,2-1,2.74-4.04,4.34-6.59,10-8,0.33,0.67.67,1.33,1,2Q1691.5,3006.505,1746,3003Zm70,1c0.33,0.67.67,1.33,1,2C1816.67,3005.33,1816.33,3004.67,1816,3004Zm231,1h2l-2,2v-2Zm-1180,7h2c-0.667.67-1.333,1.33-2,2v-2Zm-817,2v0Zm1225,4h2l-2,2v-2ZM245,3028c0.667,0.67,1.333,1.33,2,2C246.333,3029.33,245.667,3028.67,245,3028Zm2218,7c-0.33,1-.67,2-1,3-74.73-2.05-47.98,110.58-48,179-0.01,24.8-8.9,74.06,5,90,12.03,15.28,56.63,17.4,69,1,18.07-23.96,7.42-62.59,13-101,5.18-35.59,18.31-133.7-2-159C2492.2,3039.53,2476.51,3036.64,2463,3035Zm-630,1c0.33,0.67.67,1.33,1,2C1833.67,3037.33,1833.33,3036.67,1833,3036ZM103,3054c1.168,15.84-.492,31.09-3,47l3,48c44.8-1.89,69.913-15.42,81-52,2.962-9.77,10.129-28.27,3-39C171.871,3035.24,128.073,3052.16,103,3054Zm1950-8h0ZM939,3056c-3,.33-6,0.67-9,1-1.349,4.02.878,3.4-3,3l3,60c33.024,1.53,112.66,14.55,98-41C1018.65,3043.56,970.841,3065.79,939,3056Zm1497,1c0.33,1,.67,2,1,3h-1v-3Zm-1435,2c0.33,0.67.67,1.33,1,2C1001.67,3060.33,1001.33,3059.67,1001,3059Zm-10,3c-0.424.93,0.8,0.68-1,2C990.333,3063.33,990.667,3062.67,991,3062Zm-816,3h0Zm1603,0h2l-2,2v-2Zm-32,1h3v1c-1.33.33-2.67,0.67-4,1C1745.33,3067.33,1745.67,3066.67,1746,3066Zm36,0h2C1782.25,3066.98,1783.78,3066.91,1782,3066Zm25,1c0.33,0.67.67,1.33,1,2C1807.67,3068.33,1807.33,3067.67,1807,3067Zm10,1c0.33,0.67.67,1.33,1,2C1817.67,3069.33,1817.33,3068.67,1817,3068Zm6,0c1.67,0.33,3.33.67,5,1v1h-3Zm5,2h0Zm3,0h0Zm224,6h4v1C2057.67,3076.67,2056.33,3076.33,2055,3076Zm-1111,4h4c-1.333.67-2.667,1.33-4,2v-2Zm-694,9v0Zm2327,0c0.33,0.67.67,1.33,1,2C2577.67,3090.33,2577.33,3089.67,2577,3089Zm-80,2,2,2Zm-2392,9h2c-0.667.67-1.333,1.33-2,2v-2Zm1358,0v4h1C1463.67,3102.67,1463.33,3101.33,1463,3100Zm979,20c0.33,0.67.67,1.33,1,2C2442.67,3121.33,2442.33,3120.67,2442,3120ZM567,3130c-5.639,42.24-28.909,72.78-34,114q24-1.005,48-2,15,1.005,30,2C600.475,3221.13,581.274,3142.48,567,3130Zm2683,0c-5.64,42.24-28.91,72.78-34,114q24-1.005,48-2,15,1.005,30,2C3283.48,3221.13,3264.27,3142.48,3250,3130Zm-1830,10c1.33,0.33,2.67.67,4,1C1422.67,3140.67,1421.33,3140.33,1420,3140Zm-369,25c0.33,1,.67,2,1,3h-1l-1-1C1050.33,3166.33,1050.67,3165.67,1051,3165Zm-4,3h2l-2,2v-2Zm-2,1c-0.75,2.62-2.22,3.73-6,6h-3v-1Q1040.5,3171.5,1045,3169Zm-12,5c-0.22,1.47.41,1-1,3-1.33-.33-2.67-0.67-4-1C1029.67,3175.33,1031.33,3174.67,1033,3174Zm-8,2h2l-2,2v-2Zm701,3h2l-2,2v-2Zm713,0c0.33,0.67.67,1.33,1,2C2439.67,3180.33,2439.33,3179.67,2439,3179Zm-1505,2c1.333,0.33,2.667.67,4,1C936.667,3181.67,935.333,3181.33,934,3181Zm821,3h2l-2,2v-2Zm-140,2h2l-2,2v-2Zm959,7h2l-2,2v-2ZM117,3318c29.636-.14,93.1-16.57,101-35l-8,6c0.333-1.33.667-2.67,1-4,13.534-16.23,31.009-56.22,1-70-11.079-5.09-24.107-1.52-39-4-24.19-4.03-45.753,1.07-58,9C109.2,3251.35,115.77,3287.13,117,3318Zm1-104c0.667,0.33,1.333.67,2,1C119.333,3214.67,118.667,3214.33,118,3214Zm-3,1c0.667,0.33,1.333.67,2,1C116.333,3215.67,115.667,3215.33,115,3215Zm1643,6v3c0.33-1,.67-2,1-3h-1Zm0,7v3c0.33-1,.67-2,1-3h-1Zm-11,10v0Zm8,2h2c-0.33,1.33-.67,2.67-1,4h-4C1753,3242.67,1754,3241.33,1755,3240Zm-890,8q0.5,12.495,1,25Q865.5,3260.505,865,3248Zm847,0h2l-2,2v-2Zm1253,4h2l-2,2v-2Zm-395,12h2l-2,2v-2Zm-84,11c3.02,1.26,1.2-.02,3,2h-1Zm-2310,2h2c-0.667.67-1.333,1.33-2,2v-2Zm-134,3h0Zm2420,0h2l-2,2v-2Zm-778,1h2C1684.25,3281.98,1685.78,3281.91,1684,3281Zm-689,2c0.667,0.67,1.333,1.33,2,2-0.333.33-.667,0.67-1,1Q995.5,3284.5,995,3283Zm402,5,2,2Zm-1190,2c0.333,0.67.667,1.33,1,2h-2C206.333,3291.33,206.667,3290.67,207,3290Zm872,6,2,2Zm-943,2h0Zm1619,12h2l-2,2v-2Zm-396,2h2l-2,2v-2Zm86,7c-0.67,1-1.33,2-2,3C1446.14,3320.23,1444.48,3320.99,1445,3319Zm1114,1c0.33,0.67.67,1.33,1,2C2559.67,3321.33,2559.33,3320.67,2559,3320Zm-364,21c0.33,0.67.67,1.33,1,2C2195.67,3342.33,2195.33,3341.67,2195,3341ZM44,3342h0Zm1773,0c0.33,1.67.67,3.33,1,5C1817.67,3345.33,1817.33,3343.67,1817,3342Zm373,7,2,2ZM53,3352h0Zm2921,1h2l-2,2v-2Zm-11,1c3.58,2.56,5.02,3.51,6,9-1-.67-2-1.33-3-2C2965,3358.67,2964,3356.33,2963,3354Zm-2260,1c0.419,5.22-.656,3.98,3,6Zm2683,0c0.42,5.22-.66,3.98,3,6Zm-2688,2c1,1.33,2,2.67,3,4h1v-4h-4Zm2683,0c1,1.33,2,2.67,3,4h1v-4h-4Zm-2674,2v0Zm2683,0v0Zm-3177,8h2l-2,3v-3Zm1801,0c1,0.33,2,.67,3,1C2016,3367.67,2015,3367.33,2014,3367Zm-10,1c0.67,0.33,1.33.67,2,1C2005.33,3368.67,2004.67,3368.33,2004,3368Zm171,0h2l-2,2v-2Zm741,0c3.02,1.26,1.2-.02,3,2h-1Zm-119,1v5h-1C2796.33,3372.33,2796.67,3370.67,2797,3369Zm-1004,3h0Zm-1305,1c-0.424.93,0.8,0.68-1,2C487.333,3374.33,487.667,3373.67,488,3373Zm2683,0c-0.42.93,0.8,0.68-1,2C3170.33,3374.33,3170.67,3373.67,3171,3373Zm-2275,4h0Zm1577,5h2l-2,2v-2Z"/>
</svg>
